<?xml version="1.0" encoding="utf-8"?>
<!-- Generator: Adobe Illustrator 16.0.0, SVG Export Plug-In . SVG Version: 6.00 Build 0)  -->
<!DOCTYPE svg PUBLIC "-//W3C//DTD SVG 1.1//EN" "http://www.w3.org/Graphics/SVG/1.1/DTD/svg11.dtd">
<svg version="1.1" id="Ebene_1" xmlns="http://www.w3.org/2000/svg" xmlns:xlink="http://www.w3.org/1999/xlink" x="0px" y="0px"
	 width="377.219px" height="225.417px" viewBox="0 0 377.219 225.417" enable-background="new 0 0 377.219 225.417"
	 xml:space="preserve">
<g>
	<g>
		<path fill="#B48550" d="M160.346,156.957v-21.912h14.148v2.619h-10.509v6.517h8.848v2.491h-8.848v7.634h10.987v2.651H160.346z"/>
		<path fill="#B48550" d="M179.383,152.164v-10.826h3.481v10.029c0,1.725,0.16,3.192,2.428,3.192c1.055,0,2.651-0.574,3.992-1.756
			v-11.468c1.182,0,2.331-0.032,3.481-0.032v15.651h-3.321l-0.064-1.725l-0.096-0.064c-1.979,1.756-4.12,2.141-5.27,2.141
			C179.798,157.307,179.383,154.751,179.383,152.164z"/>
		<path fill="#B48550" d="M201.455,143.796c1.63-1.502,4.025-2.875,5.687-2.875c0.543,0,0.831,0.287,0.831,0.927
			c0,0.83-0.542,2.587-1.118,3.321c-1.788,0.096-3.608,0.256-5.365,0.353v11.435h-3.515v-15.619h3.449
			c-0.031,0.703-0.096,1.629-0.158,2.332L201.455,143.796z"/>
		<path fill="#B48550" d="M217.814,157.244c-5.431,0-7.218-3.705-7.218-8.051c0-4.248,2.074-8.208,7.474-8.208
			c5.493,0,7.282,3.96,7.282,8.177C225.352,153.315,223.5,157.244,217.814,157.244z M218.07,143.541
			c-3.067,0-3.865,2.938-3.865,5.652c0,2.971,0.607,5.495,3.865,5.495c3.034,0,3.641-2.78,3.641-5.495
			C221.71,146.542,221.167,143.541,218.07,143.541z"/>
		<path fill="#B48550" d="M233.443,142.837c1.406-1.117,3.131-1.725,4.695-1.725c4.632,0,6.006,3.577,6.006,7.891
			c0,4.599-1.726,8.24-6.453,8.24c-1.149,0-3.034-0.192-4.312-1.022v7.378h-3.48v-22.295h3.321l0.063,1.406L233.443,142.837z
			 M240.629,148.875c0-4.023-1.468-5.11-3.545-5.11c-1.149,0-2.971,0.768-3.673,1.438v8.526c0.671,0.479,2.299,0.99,3.546,0.99
			C238.874,154.719,240.629,153.41,240.629,148.875z"/>
		<path fill="#B48550" d="M261.335,154.529h2.076l0.191,1.98c-0.896,0.447-2.172,0.701-3.227,0.701c-1.31,0-2.141-0.317-2.235-1.916
			c0-0.031-0.031-0.031-0.063-0.062c-2.299,1.979-4.472,2.012-5.396,2.012c-3.737,0-4.695-2.715-4.695-4.505
			c0-3.002,2.746-4.565,6.196-4.726l3.8-0.258v-0.86c0-2.3-0.701-3.163-3.162-3.163c-1.533,0-3.354,0.319-4.886,0.831
			c-0.192-0.733-0.416-1.502-0.641-2.235c1.79-0.798,4.281-1.277,6.356-1.277c3.514,0,5.686,1.373,5.686,5.303V154.529z
			 M252.137,139.069c-1.119,0-1.79-0.702-1.79-1.659c0-0.959,0.735-1.662,1.758-1.662c1.148,0,1.853,0.672,1.853,1.662
			C253.958,138.366,253.254,139.069,252.137,139.069z M254.373,149.96c-1.853,0.127-2.715,0.99-2.715,2.396
			c0,1.629,0.734,2.459,2.523,2.459c1.182,0,2.555-0.64,3.8-1.757v-3.354L254.373,149.96z M258.397,139.069
			c-1.054,0-1.693-0.702-1.693-1.659c0-0.959,0.703-1.662,1.693-1.662c1.182,0,1.885,0.672,1.885,1.662
			C260.282,138.366,259.579,139.069,258.397,139.069z"/>
		<path fill="#B48550" d="M269.695,139.132c-1.246,0-2.107-0.926-2.107-2.012c0-1.149,0.861-2.045,2.107-2.045
			c1.311,0,2.172,0.896,2.172,2.045C271.867,138.207,271.005,139.132,269.695,139.132z M267.938,156.957v-15.619h3.48v15.619
			H267.938z"/>
		<path fill="#B48550" d="M287.673,142.136c-0.224,0.447-0.671,1.818-0.895,2.268c-1.63-0.64-2.971-0.83-4.121-0.83
			c-1.437,0-2.745,0.512-2.745,1.979c0,1.149,1.82,1.692,3.065,2.075c2.619,0.768,5.558,1.533,5.558,4.982
			c0,3.067-2.522,4.568-6.676,4.568c-1.82,0-4.312-0.385-5.941-1.247l0.928-2.269c2.235,0.928,3.991,1.055,5.078,1.055
			c1.758,0,3.161-0.51,3.161-2.139c0-1.471-1.531-1.887-3.129-2.429c-2.779-0.926-5.431-1.629-5.431-4.631
			c0-3.004,2.427-4.536,6.101-4.536C284.095,140.986,286.172,141.273,287.673,142.136z"/>
		<path fill="#B48550" d="M300.094,154.496c1.564,0,2.874-0.352,4.375-0.927l0.767,2.333c-1.438,0.768-3.545,1.277-5.652,1.277
			c-5.559,0-7.22-3.451-7.22-7.857c0-3.48,1.311-8.337,7.41-8.337c1.374,0,2.971,0.128,4.664,0.767l-0.64,2.492
			c-1.438-0.447-2.588-0.513-3.576-0.513c-2.779,0-4.312,2.077-4.312,5.367C295.909,152.292,296.899,154.496,300.094,154.496z"/>
		<path fill="#B48550" d="M312.715,142.71c1.819-1.022,3.991-1.758,5.429-1.758c4.249,0,4.664,2.588,4.664,5.207v10.797h-3.481
			v-10.03c0-2.013-0.223-3.194-2.49-3.194c-1.277,0-3.004,0.672-4.218,1.374v11.851h-3.513v-22.772h3.449v5.077l-0.095,3.322
			L312.715,142.71z"/>
		<path fill="#B48550" d="M341.261,148.492v1.244h-10.381c0,2.684,1.054,4.823,4.216,4.823c1.757,0,3.321-0.384,5.015-1.054
			l0.768,2.173c-1.949,1.054-4.058,1.501-6.196,1.501c-5.878,0-7.346-3.674-7.346-8.018c0-3.066,1.214-8.209,7.218-8.209
			C341.006,140.953,341.261,146.16,341.261,148.492z M330.944,147.821h7.091c0-2.651-0.768-4.503-3.354-4.503
			C331.966,143.318,331.104,145.457,330.944,147.821z"/>
		<path fill="#B48550" d="M356.712,142.136c-0.225,0.447-0.672,1.818-0.896,2.268c-1.629-0.64-2.971-0.83-4.12-0.83
			c-1.438,0-2.746,0.512-2.746,1.979c0,1.149,1.82,1.692,3.065,2.075c2.62,0.768,5.558,1.533,5.558,4.982
			c0,3.067-2.522,4.568-6.676,4.568c-1.82,0-4.312-0.385-5.941-1.247l0.928-2.269c2.235,0.928,3.992,1.055,5.079,1.055
			c1.757,0,3.161-0.51,3.161-2.139c0-1.471-1.532-1.887-3.13-2.429c-2.778-0.926-5.431-1.629-5.431-4.631
			c0-3.004,2.428-4.536,6.102-4.536C353.134,140.986,355.211,141.273,356.712,142.136z"/>
		<path fill="#B48550" d="M173.441,188.894v-10.126h-9.454c0,3.354,0.032,6.771,0.032,10.126h-3.673v-21.879h3.673
			c0,3.033-0.032,5.973-0.032,9.007h9.454v-9.007h3.674v21.879H173.441z"/>
		<path fill="#B48550" d="M195.336,186.466h2.077l0.19,1.979c-0.895,0.447-2.171,0.702-3.227,0.702c-1.31,0-2.14-0.318-2.235-1.916
			c0-0.031-0.031-0.031-0.063-0.062c-2.299,1.979-4.471,2.012-5.396,2.012c-3.737,0-4.694-2.715-4.694-4.506
			c0-3.002,2.745-4.565,6.196-4.726l3.8-0.257v-0.861c0-2.3-0.702-3.162-3.162-3.162c-1.533,0-3.354,0.319-4.887,0.83
			c-0.191-0.733-0.415-1.5-0.64-2.234c1.789-0.799,4.28-1.277,6.355-1.277c3.515,0,5.686,1.373,5.686,5.303V186.466z
			 M188.374,181.898c-1.852,0.128-2.715,0.99-2.715,2.396c0,1.629,0.735,2.459,2.524,2.459c1.181,0,2.555-0.641,3.8-1.758v-3.353
			L188.374,181.898z"/>
		<path fill="#B48550" d="M211.755,188.894v-10.03c0-2.106-0.352-3.194-2.49-3.194c-1.277,0-3.002,0.672-4.217,1.375v11.851h-3.515
			v-15.619h3.354l0.031,1.373l0.128,0.063c1.788-1.149,3.961-1.82,5.463-1.82c4.216,0,4.727,2.588,4.727,5.206v10.797
			L211.755,188.894L211.755,188.894z"/>
		<path fill="#B48550" d="M231.087,174.073c-0.224,0.447-0.671,1.819-0.895,2.269c-1.63-0.641-2.971-0.83-4.121-0.83
			c-1.438,0-2.747,0.511-2.747,1.979c0,1.149,1.821,1.693,3.067,2.076c2.617,0.768,5.557,1.533,5.557,4.982
			c0,3.066-2.521,4.567-6.675,4.567c-1.82,0-4.312-0.384-5.941-1.245l0.928-2.27c2.234,0.927,3.991,1.055,5.077,1.055
			c1.759,0,3.162-0.511,3.162-2.14c0-1.47-1.533-1.886-3.131-2.429c-2.778-0.926-5.429-1.629-5.429-4.631
			c0-3.004,2.427-4.535,6.101-4.535C227.509,172.923,229.586,173.21,231.087,174.073z"/>
		<path fill="#B48550" d="M249.703,180.43v1.243h-10.381c0,2.685,1.055,4.824,4.218,4.824c1.755,0,3.321-0.385,5.015-1.055
			l0.767,2.173c-1.948,1.054-4.056,1.501-6.196,1.501c-5.877,0-7.347-3.674-7.347-8.018c0-3.066,1.214-8.209,7.219-8.209
			C249.449,172.891,249.703,178.097,249.703,180.43z M239.386,179.757h7.092c0-2.65-0.769-4.502-3.354-4.502
			C240.409,175.255,239.545,177.395,239.386,179.757z"/>
		<path fill="#B48550" d="M273.89,188.894v-10.126c0-2.013-0.447-3.065-2.491-3.065c-1.214,0-2.938,0.543-3.993,1.246
			c0.128,0.701,0.159,1.532,0.159,2.075v9.87h-3.448c0-3.516-0.033-7.025-0.033-10.541c0-1.788-0.83-2.618-2.234-2.618
			c-1.311,0-2.844,0.574-4.088,1.341v11.818h-3.481v-15.619h3.321l0.062,1.471l0.128,0.094c1.757-1.244,3.801-1.885,5.335-1.885
			c1.725,0,3.002,0.607,3.802,1.949c1.501-1.117,3.896-1.98,5.621-1.98c4.312,0,4.854,2.779,4.854,5.367v10.604H273.89z"/>
		<path fill="#B48550" d="M282.435,184.102v-10.827h3.48v10.029c0,1.725,0.159,3.193,2.427,3.193c1.056,0,2.651-0.574,3.992-1.756
			v-11.468c1.183,0,2.332-0.032,3.481-0.032v15.651h-3.321l-0.062-1.726l-0.098-0.064c-1.979,1.758-4.12,2.141-5.27,2.141
			C282.849,189.244,282.435,186.69,282.435,184.102z"/>
		<path fill="#B48550" d="M311.719,174.073c-0.225,0.447-0.67,1.819-0.895,2.269c-1.629-0.641-2.971-0.83-4.12-0.83
			c-1.438,0-2.747,0.511-2.747,1.979c0,1.149,1.821,1.693,3.065,2.076c2.62,0.768,5.559,1.533,5.559,4.982
			c0,3.066-2.522,4.567-6.676,4.567c-1.82,0-4.312-0.384-5.939-1.245l0.926-2.27c2.236,0.927,3.993,1.055,5.078,1.055
			c1.757,0,3.163-0.511,3.163-2.14c0-1.47-1.533-1.886-3.132-2.429c-2.777-0.926-5.429-1.629-5.429-4.631
			c0-3.004,2.427-4.535,6.101-4.535C308.142,172.923,310.218,173.21,311.719,174.073z"/>
		<path fill="#B48550" d="M330.336,180.43v1.243h-10.382c0,2.685,1.056,4.824,4.217,4.824c1.757,0,3.321-0.385,5.016-1.055
			l0.767,2.173c-1.948,1.054-4.058,1.501-6.195,1.501c-5.878,0-7.348-3.674-7.348-8.018c0-3.066,1.214-8.209,7.219-8.209
			C330.08,172.891,330.336,178.097,330.336,180.43z M320.019,179.757h7.09c0-2.65-0.767-4.502-3.353-4.502
			C321.041,175.255,320.178,177.395,320.019,179.757z"/>
		<path fill="#B48550" d="M334.818,184.102v-10.827h3.481v10.029c0,1.725,0.16,3.193,2.428,3.193c1.054,0,2.651-0.574,3.992-1.756
			v-11.468c1.183,0,2.333-0.032,3.48-0.032v15.651h-3.32l-0.064-1.726l-0.096-0.064c-1.98,1.758-4.12,2.141-5.271,2.141
			C335.234,189.244,334.818,186.69,334.818,184.102z"/>
		<path fill="#B48550" d="M372.854,188.894v-10.126c0-2.013-0.447-3.065-2.491-3.065c-1.214,0-2.938,0.543-3.992,1.246
			c0.128,0.701,0.16,1.532,0.16,2.075v9.87h-3.45c0-3.516-0.03-7.025-0.03-10.541c0-1.788-0.831-2.618-2.236-2.618
			c-1.311,0-2.843,0.574-4.089,1.341v11.818h-3.481v-15.619h3.321l0.064,1.471l0.128,0.094c1.756-1.244,3.8-1.885,5.334-1.885
			c1.725,0,3.003,0.607,3.801,1.949c1.501-1.117,3.896-1.98,5.622-1.98c4.312,0,4.854,2.779,4.854,5.367v10.604H372.854z"/>
	</g>
	<path fill="#B48550" d="M121.824,118.776c-1.447-27.829-16.028-37.009-40.826-35.714c-6.957,0.365-15.543,1.66-23.578,3.753
		l-22.791,23.571L28.851,0l-5.836,0.306L0,28.23l10.309,196.68l30.52-1.599L35.46,120.818c11.482-7.511,23.942-12.314,34.136-12.85
		c16.812-0.88,22.466,6.842,23.388,24.479l4.613,87.888l29.478-1.545L121.824,118.776z"/>
</g>
</svg>
