<?xml version="1.0" encoding="utf-8"?>
<!-- Generator: Adobe Illustrator 16.0.0, SVG Export Plug-In . SVG Version: 6.00 Build 0)  -->
<!DOCTYPE svg PUBLIC "-//W3C//DTD SVG 1.1//EN" "http://www.w3.org/Graphics/SVG/1.1/DTD/svg11.dtd">
<svg version="1.1" id="Ebene_1" xmlns="http://www.w3.org/2000/svg" xmlns:xlink="http://www.w3.org/1999/xlink" x="0px" y="0px"
	 width="377.218px" height="225.417px" viewBox="0 0 377.218 225.417" enable-background="new 0 0 377.218 225.417"
	 xml:space="preserve">
<g>
	<g>
		<path fill="#7A1B23" d="M160.346,156.956v-21.912h14.149v2.62h-10.509v6.516h8.848v2.491h-8.848v7.634h10.987v2.651H160.346z"/>
		<path fill="#7A1B23" d="M179.383,152.164v-10.827h3.481v10.029c0,1.725,0.16,3.193,2.428,3.193c1.054,0,2.651-0.574,3.992-1.756
			v-11.467c1.182,0,2.331-0.033,3.481-0.033v15.652h-3.321l-0.064-1.725l-0.096-0.065c-1.98,1.757-4.12,2.141-5.27,2.141
			C179.798,157.307,179.383,154.752,179.383,152.164z"/>
		<path fill="#7A1B23" d="M201.455,143.797c1.63-1.503,4.025-2.875,5.686-2.875c0.543,0,0.831,0.287,0.831,0.926
			c0,0.83-0.542,2.587-1.118,3.321c-1.788,0.096-3.608,0.256-5.365,0.353v11.435h-3.515v-15.619h3.45
			c-0.032,0.702-0.096,1.629-0.159,2.331L201.455,143.797z"/>
		<path fill="#7A1B23" d="M217.814,157.243c-5.43,0-7.218-3.705-7.218-8.05c0-4.248,2.075-8.208,7.474-8.208
			c5.493,0,7.282,3.96,7.282,8.177C225.352,153.315,223.5,157.243,217.814,157.243z M218.07,143.541
			c-3.067,0-3.865,2.938-3.865,5.652c0,2.971,0.607,5.495,3.865,5.495c3.034,0,3.641-2.78,3.641-5.495
			C221.71,146.543,221.167,143.541,218.07,143.541z"/>
		<path fill="#7A1B23" d="M233.443,142.838c1.406-1.118,3.131-1.725,4.695-1.725c4.632,0,6.006,3.577,6.006,7.89
			c0,4.599-1.725,8.24-6.453,8.24c-1.149,0-3.034-0.192-4.312-1.022v7.378h-3.481v-22.295h3.321l0.064,1.406L233.443,142.838z
			 M240.629,148.874c0-4.023-1.468-5.11-3.545-5.11c-1.15,0-2.971,0.768-3.673,1.438v8.527c0.671,0.48,2.299,0.99,3.546,0.99
			C238.874,154.719,240.629,153.41,240.629,148.874z"/>
		<path fill="#7A1B23" d="M261.335,154.529h2.076l0.191,1.98c-0.895,0.447-2.172,0.702-3.226,0.702c-1.31,0-2.141-0.318-2.236-1.916
			c0-0.032-0.031-0.032-0.063-0.063c-2.299,1.979-4.472,2.012-5.397,2.012c-3.737,0-4.695-2.715-4.695-4.505
			c0-3.002,2.746-4.566,6.196-4.726l3.8-0.257v-0.861c0-2.3-0.701-3.163-3.162-3.163c-1.533,0-3.353,0.319-4.886,0.831
			c-0.192-0.734-0.416-1.502-0.64-2.235c1.79-0.798,4.281-1.278,6.356-1.278c3.514,0,5.686,1.374,5.686,5.303V154.529z
			 M252.137,139.069c-1.119,0-1.79-0.702-1.79-1.66s0.736-1.661,1.758-1.661c1.149,0,1.853,0.671,1.853,1.661
			C253.958,138.366,253.254,139.069,252.137,139.069z M254.373,149.96c-1.853,0.128-2.715,0.99-2.715,2.396
			c0,1.629,0.734,2.459,2.523,2.459c1.182,0,2.555-0.64,3.8-1.757v-3.354L254.373,149.96z M258.397,139.069
			c-1.054,0-1.693-0.702-1.693-1.66s0.703-1.661,1.693-1.661c1.182,0,1.885,0.671,1.885,1.661
			C260.282,138.366,259.579,139.069,258.397,139.069z"/>
		<path fill="#7A1B23" d="M269.695,139.133c-1.246,0-2.107-0.927-2.107-2.012c0-1.15,0.861-2.045,2.107-2.045
			c1.311,0,2.172,0.895,2.172,2.045C271.867,138.206,271.005,139.133,269.695,139.133z M267.938,156.956v-15.619h3.481v15.619
			H267.938z"/>
		<path fill="#7A1B23" d="M287.673,142.136c-0.224,0.447-0.671,1.819-0.895,2.268c-1.63-0.64-2.971-0.83-4.121-0.83
			c-1.437,0-2.745,0.511-2.745,1.979c0,1.149,1.82,1.693,3.065,2.076c2.619,0.767,5.558,1.533,5.558,4.982
			c0,3.067-2.523,4.568-6.676,4.568c-1.82,0-4.312-0.384-5.941-1.247l0.927-2.268c2.236,0.927,3.992,1.054,5.079,1.054
			c1.757,0,3.161-0.51,3.161-2.139c0-1.47-1.532-1.886-3.129-2.428c-2.78-0.926-5.431-1.629-5.431-4.631
			c0-3.004,2.427-4.536,6.101-4.536C284.095,140.986,286.172,141.273,287.673,142.136z"/>
		<path fill="#7A1B23" d="M300.093,154.496c1.565,0,2.874-0.352,4.375-0.927l0.767,2.333c-1.438,0.767-3.545,1.277-5.652,1.277
			c-5.559,0-7.22-3.451-7.22-7.857c0-3.481,1.311-8.337,7.41-8.337c1.374,0,2.971,0.128,4.664,0.767l-0.64,2.492
			c-1.437-0.447-2.587-0.513-3.576-0.513c-2.779,0-4.312,2.077-4.312,5.367C295.909,152.292,296.899,154.496,300.093,154.496z"/>
		<path fill="#7A1B23" d="M312.714,142.71c1.82-1.022,3.992-1.757,5.429-1.757c4.249,0,4.664,2.588,4.664,5.206v10.797h-3.481
			v-10.03c0-2.012-0.223-3.194-2.491-3.194c-1.277,0-3.003,0.672-4.217,1.374v11.851h-3.513v-22.773h3.449v5.077l-0.095,3.323
			L312.714,142.71z"/>
		<path fill="#7A1B23" d="M341.261,148.492v1.244H330.88c0,2.684,1.054,4.823,4.216,4.823c1.757,0,3.321-0.384,5.015-1.054
			l0.767,2.173c-1.949,1.054-4.057,1.501-6.196,1.501c-5.878,0-7.346-3.674-7.346-8.018c0-3.066,1.214-8.209,7.218-8.209
			C341.005,140.953,341.261,146.159,341.261,148.492z M330.944,147.821h7.091c0-2.651-0.768-4.503-3.354-4.503
			C331.965,143.318,331.104,145.457,330.944,147.821z"/>
		<path fill="#7A1B23" d="M356.711,142.136c-0.224,0.447-0.671,1.819-0.895,2.268c-1.629-0.64-2.971-0.83-4.12-0.83
			c-1.438,0-2.746,0.511-2.746,1.979c0,1.149,1.82,1.693,3.065,2.076c2.62,0.767,5.558,1.533,5.558,4.982
			c0,3.067-2.523,4.568-6.676,4.568c-1.82,0-4.312-0.384-5.941-1.247l0.927-2.268c2.236,0.927,3.992,1.054,5.079,1.054
			c1.757,0,3.161-0.51,3.161-2.139c0-1.47-1.532-1.886-3.129-2.428c-2.779-0.926-5.431-1.629-5.431-4.631
			c0-3.004,2.428-4.536,6.102-4.536C353.133,140.986,355.21,141.273,356.711,142.136z"/>
		<path fill="#7A1B23" d="M173.441,188.894v-10.126h-9.454c0,3.354,0.032,6.771,0.032,10.126h-3.673v-21.879h3.673
			c0,3.034-0.032,5.973-0.032,9.007h9.454v-9.007h3.674v21.879H173.441z"/>
		<path fill="#7A1B23" d="M195.336,186.466h2.077l0.19,1.98c-0.894,0.447-2.171,0.702-3.226,0.702c-1.31,0-2.14-0.318-2.236-1.916
			c0-0.032-0.031-0.032-0.063-0.063c-2.299,1.979-4.471,2.012-5.397,2.012c-3.737,0-4.694-2.715-4.694-4.505
			c0-3.002,2.745-4.566,6.196-4.726l3.8-0.257v-0.861c0-2.3-0.702-3.163-3.162-3.163c-1.533,0-3.353,0.32-4.887,0.831
			c-0.191-0.734-0.415-1.501-0.639-2.235c1.789-0.798,4.28-1.277,6.355-1.277c3.515,0,5.686,1.373,5.686,5.302V186.466z
			 M188.374,181.898c-1.852,0.128-2.715,0.99-2.715,2.396c0,1.629,0.735,2.459,2.524,2.459c1.181,0,2.555-0.64,3.8-1.757v-3.353
			L188.374,181.898z"/>
		<path fill="#7A1B23" d="M211.755,188.894v-10.03c0-2.107-0.352-3.194-2.491-3.194c-1.277,0-3.002,0.672-4.216,1.374v11.851h-3.515
			v-15.619h3.354l0.032,1.373l0.128,0.063c1.788-1.149,3.961-1.82,5.462-1.82c4.216,0,4.727,2.588,4.727,5.206v10.797H211.755z"/>
		<path fill="#7A1B23" d="M231.087,174.073c-0.224,0.447-0.671,1.819-0.895,2.268c-1.63-0.64-2.971-0.83-4.121-0.83
			c-1.437,0-2.747,0.511-2.747,1.979c0,1.149,1.821,1.693,3.067,2.076c2.618,0.767,5.557,1.533,5.557,4.982
			c0,3.067-2.522,4.568-6.675,4.568c-1.82,0-4.312-0.384-5.941-1.246l0.927-2.269c2.235,0.927,3.992,1.055,5.078,1.055
			c1.758,0,3.162-0.511,3.162-2.14c0-1.47-1.533-1.886-3.131-2.428c-2.778-0.926-5.429-1.629-5.429-4.631
			c0-3.004,2.427-4.536,6.101-4.536C227.509,172.923,229.586,173.211,231.087,174.073z"/>
		<path fill="#7A1B23" d="M249.703,180.43v1.244h-10.381c0,2.684,1.055,4.823,4.218,4.823c1.755,0,3.321-0.384,5.014-1.054
			l0.767,2.173c-1.948,1.054-4.056,1.501-6.196,1.501c-5.877,0-7.347-3.674-7.347-8.018c0-3.066,1.214-8.209,7.219-8.209
			C249.449,172.891,249.703,178.097,249.703,180.43z M239.386,179.758h7.092c0-2.651-0.768-4.503-3.354-4.503
			C240.409,175.255,239.545,177.395,239.386,179.758z"/>
		<path fill="#7A1B23" d="M273.89,188.894v-10.126c0-2.012-0.447-3.066-2.491-3.066c-1.214,0-2.938,0.544-3.993,1.247
			c0.128,0.701,0.159,1.532,0.159,2.075v9.87h-3.448c0-3.515-0.033-7.026-0.033-10.541c0-1.788-0.83-2.618-2.235-2.618
			c-1.31,0-2.843,0.574-4.088,1.341v11.818h-3.481v-15.619h3.321l0.063,1.47l0.128,0.095c1.757-1.245,3.801-1.885,5.335-1.885
			c1.724,0,3.002,0.607,3.801,1.949c1.501-1.118,3.896-1.98,5.622-1.98c4.312,0,4.854,2.778,4.854,5.366v10.604H273.89z"/>
		<path fill="#7A1B23" d="M282.435,184.102v-10.827h3.481v10.029c0,1.725,0.159,3.193,2.427,3.193c1.055,0,2.651-0.574,3.992-1.756
			v-11.467c1.182,0,2.332-0.033,3.481-0.033v15.652h-3.321l-0.063-1.725l-0.097-0.065c-1.98,1.758-4.12,2.141-5.27,2.141
			C282.849,189.244,282.435,186.69,282.435,184.102z"/>
		<path fill="#7A1B23" d="M311.718,174.073c-0.224,0.447-0.67,1.819-0.894,2.268c-1.629-0.64-2.971-0.83-4.12-0.83
			c-1.438,0-2.747,0.511-2.747,1.979c0,1.149,1.821,1.693,3.065,2.076c2.62,0.767,5.559,1.533,5.559,4.982
			c0,3.067-2.523,4.568-6.676,4.568c-1.82,0-4.312-0.384-5.94-1.246l0.926-2.269c2.236,0.927,3.993,1.055,5.078,1.055
			c1.757,0,3.163-0.511,3.163-2.14c0-1.47-1.533-1.886-3.131-2.428c-2.778-0.926-5.429-1.629-5.429-4.631
			c0-3.004,2.427-4.536,6.1-4.536C308.142,172.923,310.217,173.211,311.718,174.073z"/>
		<path fill="#7A1B23" d="M330.335,180.43v1.244h-10.381c0,2.684,1.055,4.823,4.216,4.823c1.757,0,3.322-0.384,5.016-1.054
			l0.767,2.173c-1.949,1.054-4.058,1.501-6.196,1.501c-5.878,0-7.347-3.674-7.347-8.018c0-3.066,1.214-8.209,7.218-8.209
			C330.08,172.891,330.335,178.097,330.335,180.43z M320.019,179.758h7.09c0-2.651-0.767-4.503-3.353-4.503
			C321.041,175.255,320.178,177.395,320.019,179.758z"/>
		<path fill="#7A1B23" d="M334.818,184.102v-10.827h3.481v10.029c0,1.725,0.16,3.193,2.428,3.193c1.054,0,2.651-0.574,3.992-1.756
			v-11.467c1.183,0,2.333-0.033,3.481-0.033v15.652h-3.321l-0.064-1.725l-0.096-0.065c-1.98,1.758-4.12,2.141-5.27,2.141
			C335.234,189.244,334.818,186.69,334.818,184.102z"/>
		<path fill="#7A1B23" d="M372.854,188.894v-10.126c0-2.012-0.447-3.066-2.491-3.066c-1.214,0-2.938,0.544-3.992,1.247
			c0.128,0.701,0.16,1.532,0.16,2.075v9.87h-3.45c0-3.515-0.031-7.026-0.031-10.541c0-1.788-0.831-2.618-2.236-2.618
			c-1.311,0-2.843,0.574-4.089,1.341v11.818h-3.481v-15.619h3.321l0.064,1.47l0.128,0.095c1.756-1.245,3.8-1.885,5.334-1.885
			c1.725,0,3.003,0.607,3.801,1.949c1.501-1.118,3.897-1.98,5.622-1.98c4.312,0,4.855,2.778,4.855,5.366v10.604H372.854z"/>
	</g>
	<path fill="#7A1B23" d="M121.824,118.776c-1.447-27.829-16.028-37.009-40.826-35.714c-6.957,0.365-15.543,1.66-23.578,3.753
		l-22.791,23.571L28.851,0l-5.836,0.306L0,28.23l10.308,196.68l30.52-1.599l-5.368-102.493c11.482-7.511,23.942-12.314,34.135-12.85
		c16.813-0.88,22.466,6.842,23.388,24.48l4.613,87.887l29.478-1.545L121.824,118.776z"/>
</g>
</svg>
