<?xml version="1.0" encoding="utf-8"?>
<!-- Generator: Adobe Illustrator 16.0.0, SVG Export Plug-In . SVG Version: 6.00 Build 0)  -->
<!DOCTYPE svg PUBLIC "-//W3C//DTD SVG 1.1//EN" "http://www.w3.org/Graphics/SVG/1.1/DTD/svg11.dtd">
<svg version="1.1" id="Ebene_1" xmlns="http://www.w3.org/2000/svg" xmlns:xlink="http://www.w3.org/1999/xlink" x="0px" y="0px"
	 width="276.64px" height="276.993px" viewBox="0 0 276.64 276.993" enable-background="new 0 0 276.64 276.993"
	 xml:space="preserve">
<g>
	<g>
		<path fill="#B58550" d="M272.755,131.354c3.892,74.262-53.151,137.616-127.414,141.508
			C71.079,276.754,7.725,219.709,3.833,145.448S56.986,7.831,131.246,3.939C205.51,0.048,268.863,57.094,272.755,131.354z"/>
		<path fill="#341F0F" d="M138.18,274.468c-72.339,0-131.973-56.64-135.762-128.945C0.516,109.229,12.861,74.366,37.18,47.357
			c24.318-27.01,57.699-42.932,93.993-44.833c2.403-0.126,4.838-0.19,7.235-0.19c72.338,0,131.973,56.641,135.762,128.946
			c1.902,36.295-10.442,71.157-34.761,98.165c-24.318,27.009-57.699,42.931-93.994,44.832
			C143.012,274.403,140.577,274.468,138.18,274.468z M138.408,5.169c-2.349,0-4.733,0.062-7.087,0.186
			C95.783,7.217,63.099,22.808,39.286,49.254c-23.812,26.446-35.9,60.582-34.038,96.12c3.711,70.8,62.101,126.259,132.932,126.259
			c2.349,0,4.733-0.062,7.087-0.186c35.539-1.862,68.225-17.453,92.036-43.898c23.811-26.445,35.899-60.582,34.037-96.12
			C267.629,60.629,209.239,5.169,138.408,5.169z"/>
	</g>
	<g>
		<g>
			<path fill="#341F0F" d="M138.197,253.208c-61.036,0-111.352-47.789-114.549-108.798C20.335,81.194,69.069,27.069,132.285,23.757
				c2.027-0.106,4.082-0.16,6.105-0.16c61.035,0,111.351,47.789,114.548,108.796c1.604,30.623-8.812,60.038-29.329,82.827
				c-20.52,22.789-48.684,36.224-79.307,37.828C142.275,253.154,140.221,253.208,138.197,253.208z M138.391,26.431
				c-1.975,0-3.979,0.053-5.957,0.156C70.777,29.818,23.248,82.607,26.479,144.262c3.119,59.502,52.191,106.112,111.719,106.112
				c1.975,0,3.979-0.053,5.957-0.156c29.866-1.565,57.336-14.668,77.348-36.895c20.013-22.227,30.171-50.915,28.606-80.782
				C246.989,73.04,197.918,26.431,138.391,26.431z"/>
		</g>
		<g>
			<path fill="#341F0F" d="M138.201,249.21c-58.91,0-107.474-46.126-110.56-105.009c-3.197-61.014,43.84-113.254,104.853-116.45
				c1.958-0.103,3.941-0.155,5.895-0.155c58.908,0,107.471,46.125,110.557,105.007c3.197,61.015-43.839,113.255-104.852,116.452
				C142.137,249.157,140.154,249.21,138.201,249.21z M138.389,30.431c-1.904,0-3.838,0.051-5.746,0.15
				C73.19,33.696,27.356,84.6,30.472,144.053C33.479,201.43,80.8,246.375,138.201,246.375c1.903,0,3.836-0.051,5.744-0.15
				c59.451-3.116,105.285-54.021,102.17-113.474C243.107,75.375,195.789,30.431,138.389,30.431z"/>
		</g>
		<g>
			<path fill="#341F0F" d="M138.205,245.211c-56.785,0-103.597-44.461-106.57-101.219C28.553,85.18,73.893,34.826,132.704,31.744
				c1.887-0.1,3.797-0.149,5.68-0.149c56.784,0,103.595,44.46,106.568,101.217c1.493,28.489-8.196,55.855-27.286,77.058
				c-19.09,21.201-45.293,33.7-73.782,35.192C141.998,245.161,140.087,245.211,138.205,245.211z M138.384,34.43
				c-1.833,0-3.694,0.049-5.531,0.145c-57.251,3-101.388,52.019-98.388,109.27c2.896,55.252,48.463,98.532,103.74,98.532
				c1.832,0,3.693-0.049,5.53-0.145c27.733-1.454,53.241-13.62,71.824-34.26c18.583-20.639,28.016-47.278,26.562-75.012
				C239.227,77.709,193.659,34.43,138.384,34.43z"/>
		</g>
		<g>
			<path fill="#341F0F" d="M138.208,241.211c-54.659,0-99.717-42.796-102.579-97.429c-1.438-27.423,7.89-53.765,26.264-74.172
				c18.376-20.406,43.598-32.437,71.021-33.873c1.815-0.096,3.656-0.144,5.469-0.144c54.656,0,99.713,42.795,102.576,97.427
				c2.967,56.61-40.674,105.08-97.283,108.047C141.859,241.163,140.02,241.211,138.208,241.211z M138.382,38.428
				c-1.763,0-3.553,0.047-5.321,0.14C106.395,39.965,81.868,51.663,64,71.508s-26.939,45.459-25.541,72.126
				c2.784,53.127,46.599,94.743,99.749,94.743c1.763,0,3.552-0.048,5.317-0.14c55.05-2.886,97.486-50.019,94.602-105.068
				C235.344,80.043,191.529,38.428,138.382,38.428z"/>
		</g>
		<g>
			<path fill="#341F0F" d="M138.211,237.213c-52.532,0-95.838-41.132-98.589-93.641C38.24,117.217,47.205,91.9,64.865,72.287
				s41.9-31.176,68.257-32.557c1.745-0.092,3.514-0.139,5.256-0.139c52.53,0,95.835,41.131,98.587,93.638
				c1.381,26.356-7.584,51.673-25.243,71.287c-17.661,19.614-41.9,31.177-68.256,32.558
				C141.721,237.166,139.952,237.213,138.211,237.213z M138.378,42.427c-1.693,0-3.411,0.045-5.107,0.134
				c-25.6,1.342-49.146,12.572-66.299,31.623s-25.862,43.641-24.52,69.24c2.673,51.002,44.734,90.954,95.759,90.954
				c1.692,0,3.41-0.045,5.106-0.134c25.6-1.342,49.145-12.572,66.298-31.624c17.152-19.052,25.86-43.642,24.52-69.242
				C231.461,82.377,189.399,42.427,138.378,42.427z"/>
		</g>
		<g>
			<path fill="#341F0F" d="M138.215,233.214c-50.406,0-91.959-39.467-94.6-89.851c-1.326-25.289,7.276-49.581,24.222-68.4
				s40.205-29.914,65.495-31.239c1.675-0.088,3.37-0.133,5.041-0.133c50.406,0,91.959,39.467,94.599,89.849
				c1.325,25.29-7.276,49.582-24.222,68.402c-16.944,18.819-40.204,29.914-65.494,31.239
				C141.581,233.169,139.886,233.214,138.215,233.214z M138.373,46.426c-1.621,0-3.268,0.043-4.893,0.128
				c-50.646,2.655-89.689,46.018-87.035,96.661c2.562,48.877,42.872,87.164,91.77,87.164c1.621,0,3.268-0.043,4.893-0.128
				c24.533-1.286,47.098-12.049,63.536-30.307c16.438-18.257,24.783-41.823,23.498-66.356
				C227.58,84.712,187.271,46.426,138.373,46.426z"/>
		</g>
		<g>
			<path fill="#341F0F" d="M138.218,229.215c-48.28,0-88.08-37.803-90.609-86.061c-1.27-24.223,6.97-47.49,23.2-65.516
				s38.51-28.651,62.732-29.921c1.604-0.084,3.229-0.127,4.829-0.127c48.279,0,88.079,37.801,90.608,86.058
				c1.27,24.224-6.97,47.491-23.199,65.518c-16.23,18.026-38.51,28.652-62.732,29.922
				C141.443,229.172,139.818,229.215,138.218,229.215z M138.37,50.426c-1.551,0-3.126,0.041-4.681,0.122
				c-23.467,1.23-45.051,11.524-60.774,28.988c-15.724,17.463-23.706,40.003-22.477,63.47c2.45,46.752,41.007,83.374,87.779,83.374
				c1.551,0,3.126-0.041,4.681-0.122c23.467-1.23,45.05-11.525,60.773-28.989c15.724-17.463,23.706-40.005,22.477-63.472
				C223.698,87.047,185.142,50.426,138.37,50.426z"/>
		</g>
		<g>
			<path fill="#341F0F" d="M138.223,225.216c-46.155,0-84.203-36.138-86.62-82.271c-2.507-47.801,34.346-88.729,82.148-91.234
				c1.533-0.081,3.086-0.121,4.615-0.121c46.154,0,84.202,36.137,86.619,82.269c1.214,23.156-6.662,45.399-22.178,62.632
				s-36.813,27.391-59.97,28.604C141.305,225.176,139.752,225.216,138.223,225.216z M138.366,54.424c-1.48,0-2.983,0.04-4.467,0.117
				c-46.242,2.424-81.891,42.016-79.467,88.256c2.339,44.627,39.144,79.585,83.79,79.585c1.48,0,2.983-0.04,4.467-0.117
				c46.24-2.424,81.89-42.017,79.466-88.258C219.816,89.381,183.012,54.424,138.366,54.424z"/>
		</g>
		<g>
			<path fill="#341F0F" d="M138.225,221.217c-44.028,0-80.323-34.474-82.629-78.481c-2.39-45.599,32.764-84.641,78.363-87.031
				c1.463-0.077,2.944-0.116,4.402-0.116c44.03,0,80.325,34.472,82.63,78.479c1.158,22.09-6.355,43.309-21.156,59.747
				c-14.801,16.439-35.117,26.13-57.208,27.287C141.165,221.178,139.684,221.217,138.225,221.217z M138.361,58.423
				c-1.409,0-2.841,0.037-4.254,0.111c-44.039,2.31-77.989,40.015-75.682,84.053c2.228,42.502,37.279,75.795,79.799,75.795
				c1.41,0,2.842-0.038,4.255-0.111c21.333-1.118,40.955-10.478,55.249-26.354s21.551-36.368,20.433-57.702
				C215.935,91.715,180.883,58.423,138.361,58.423z"/>
		</g>
		<g>
			<path fill="#341F0F" d="M138.228,217.217c-41.902,0-76.444-32.808-78.64-74.69c-2.273-43.397,31.183-80.555,74.58-82.829
				c1.393-0.073,2.803-0.11,4.191-0.11c41.9,0,76.443,32.808,78.639,74.688c1.103,21.023-6.049,41.218-20.135,56.862
				c-14.086,15.646-33.422,24.868-54.444,25.969C141.027,217.18,139.617,217.217,138.228,217.217z M138.359,62.422
				c-1.34,0-2.7,0.035-4.043,0.105c-41.837,2.193-74.09,38.014-71.898,79.851c2.116,40.376,35.416,72.004,75.81,72.004
				c1.34,0,2.7-0.035,4.043-0.105c20.267-1.062,38.905-9.953,52.486-25.035c13.579-15.082,20.472-34.55,19.411-54.817
				C212.052,94.049,178.753,62.422,138.359,62.422z"/>
		</g>
		<g>
			<path fill="#341F0F" d="M138.232,213.219c-39.776,0-72.566-31.144-74.649-70.901c-1.047-19.956,5.741-39.125,19.113-53.976
				c13.371-14.851,31.726-23.605,51.682-24.65c1.321-0.069,2.66-0.104,3.979-0.104c39.775,0,72.564,31.143,74.647,70.898
				c2.159,41.197-29.6,76.47-70.795,78.629C140.889,213.184,139.551,213.219,138.232,213.219z M138.357,66.421
				c-1.27,0-2.559,0.034-3.832,0.101c-19.199,1.007-36.858,9.429-49.723,23.717c-12.865,14.288-19.396,32.73-18.39,51.931
				c2.005,38.252,33.552,68.215,71.819,68.215c1.269,0,2.558-0.033,3.828-0.1c39.636-2.078,70.19-36.015,68.114-75.65
				C208.17,96.384,176.624,66.421,138.357,66.421z"/>
		</g>
		<g>
			<path fill="#341F0F" d="M138.234,209.219c-37.649,0-68.688-29.479-70.659-67.111c-0.99-18.89,5.436-37.033,18.092-51.09
				c12.657-14.057,30.031-22.344,48.921-23.333c1.251-0.065,2.518-0.099,3.766-0.099c37.65,0,68.688,29.478,70.658,67.109
				c0.991,18.89-5.435,37.034-18.091,51.092C178.264,199.844,160.89,208.131,142,209.12
				C140.749,209.186,139.482,209.219,138.234,209.219z M138.354,70.42c-1.199,0-2.416,0.032-3.617,0.095
				c-18.134,0.95-34.812,8.905-46.962,22.399c-12.151,13.494-18.319,30.912-17.369,49.045c1.894,36.127,31.687,64.426,67.829,64.426
				c1.199,0,2.416-0.032,3.617-0.095c18.134-0.95,34.812-8.905,46.961-22.4c12.152-13.494,18.32-30.912,17.37-49.046
				C204.289,98.719,174.495,70.42,138.354,70.42z"/>
		</g>
		<g>
			<path fill="#341F0F" d="M138.239,205.221c-35.526,0-64.812-27.814-66.67-63.322c-0.935-17.823,5.128-34.942,17.069-48.206
				c11.942-13.263,28.335-21.081,46.158-22.015c1.18-0.062,2.375-0.094,3.552-0.094c35.524,0,64.81,27.813,66.67,63.32
				c1.929,36.793-26.436,68.295-63.228,70.223C140.611,205.189,139.416,205.221,138.239,205.221z M138.349,74.419
				c-1.128,0-2.272,0.03-3.403,0.089c-17.067,0.895-32.766,8.381-44.199,21.082c-11.436,12.7-17.241,29.094-16.347,46.16
				c1.78,34.001,29.823,60.636,63.84,60.636c1.128,0,2.272-0.03,3.403-0.089c35.231-1.847,62.393-32.013,60.546-67.244
				C200.406,101.053,172.364,74.419,138.349,74.419z"/>
		</g>
		<g>
			<path fill="#341F0F" d="M138.242,201.221c-33.398,0-60.931-26.149-62.682-59.531c-0.877-16.757,4.822-32.852,16.049-45.321
				c11.229-12.469,26.641-19.819,43.396-20.697c1.109-0.059,2.234-0.088,3.342-0.088c33.396,0,60.928,26.148,62.677,59.53
				c0.879,16.756-4.82,32.852-16.048,45.321s-26.639,19.82-43.395,20.698C140.473,201.191,139.35,201.221,138.242,201.221z
				 M138.348,78.418c-1.059,0-2.133,0.027-3.193,0.083c-16,0.839-30.716,7.857-41.438,19.765
				c-10.721,11.906-16.163,27.275-15.325,43.275c1.672,31.876,27.961,56.845,59.851,56.845c1.058,0,2.132-0.027,3.191-0.083
				c16-0.839,30.716-7.858,41.437-19.765c10.721-11.907,16.163-27.276,15.323-43.276C196.523,103.387,170.236,78.418,138.348,78.418
				z"/>
		</g>
		<g>
			<path fill="#341F0F" d="M138.244,197.222c-31.271,0-57.051-24.484-58.688-55.741c-0.822-15.689,4.515-30.761,15.027-42.437
				c10.513-11.675,24.942-18.558,40.632-19.379c1.039-0.055,2.092-0.082,3.129-0.082c31.271,0,57.049,24.483,58.688,55.739
				c1.696,32.39-23.272,60.121-55.659,61.817C140.334,197.194,139.281,197.222,138.244,197.222z M138.344,82.417
				c-0.987,0-1.99,0.026-2.98,0.078c-14.934,0.782-28.668,7.333-38.674,18.446c-10.007,11.112-15.086,25.457-14.304,40.391
				c1.56,29.751,26.096,53.056,55.858,53.056c0.987,0,1.99-0.026,2.98-0.078c30.826-1.615,54.592-28.01,52.978-58.839
				C192.642,105.721,168.106,82.417,138.344,82.417z"/>
		</g>
		<g>
			<path fill="#341F0F" d="M138.248,193.224c-29.146,0-53.173-22.82-54.698-51.953c-0.768-14.623,4.206-28.669,14.005-39.551
				c9.798-10.882,23.247-17.296,37.87-18.062c0.968-0.051,1.948-0.077,2.914-0.077c29.146,0,53.173,22.82,54.699,51.951
				c1.583,30.187-21.688,56.033-51.875,57.615C140.193,193.197,139.213,193.224,138.248,193.224z M138.339,86.415
				c-0.917,0-1.847,0.024-2.766,0.072c-13.867,0.728-26.621,6.811-35.912,17.13c-9.292,10.318-14.008,23.639-13.282,37.505
				c1.448,27.626,24.23,49.267,51.869,49.267c0.917,0,1.848-0.024,2.767-0.072c28.626-1.501,50.693-26.011,49.193-54.637
				C188.76,108.055,165.977,86.415,138.339,86.415z"/>
		</g>
		<g>
			<path fill="#341F0F" d="M138.253,189.225c-27.021,0-49.296-21.156-50.711-48.163c-1.467-27.984,20.107-51.944,48.092-53.41
				c0.897-0.047,1.807-0.071,2.702-0.071c27.019,0,49.293,21.155,50.709,48.161c0.711,13.557-3.9,26.578-12.984,36.667
				c-9.082,10.088-21.551,16.035-35.106,16.745C140.057,189.2,139.148,189.225,138.253,189.225z M138.336,90.415
				c-0.847,0-1.706,0.022-2.554,0.066c-26.424,1.385-46.794,24.009-45.41,50.432c1.337,25.501,22.368,45.477,47.881,45.477
				c0.846,0,1.705-0.022,2.553-0.066c12.8-0.671,24.572-6.286,33.149-15.812c8.577-9.525,12.931-21.821,12.26-34.621
				C184.877,110.39,163.847,90.415,138.336,90.415z"/>
		</g>
		<g>
			<path fill="#341F0F" d="M138.255,185.226c-24.894,0-45.415-19.491-46.719-44.374c-0.655-12.489,3.594-24.486,11.962-33.78
				s19.855-14.772,32.345-15.427c25.969-1.377,47.862,18.601,49.209,44.307c0.655,12.489-3.594,24.486-11.962,33.781
				c-8.368,9.294-19.855,14.773-32.346,15.428C139.911,185.204,139.08,185.226,138.255,185.226z M138.331,94.414
				c-0.776,0-1.557,0.02-2.34,0.061c-11.733,0.615-22.525,5.763-30.387,14.494c-7.862,8.73-11.853,20.001-11.238,31.734
				c1.266,24.152,21.826,42.899,46.229,41.627c11.733-0.615,22.525-5.763,30.388-14.494c7.862-8.732,11.853-20.003,11.238-31.736
				C180.996,112.725,161.717,94.414,138.331,94.414z"/>
		</g>
		<g>
			<path fill="#341F0F" d="M138.26,181.227c-22.77,0-41.539-17.826-42.73-40.584c-0.6-11.423,3.286-22.396,10.94-30.896
				c7.653-8.5,18.16-13.511,29.583-14.108c23.795-1.246,43.775,17.012,45.006,40.521c1.235,23.581-16.943,43.771-40.523,45.007
				C139.772,181.207,139.014,181.227,138.26,181.227z M138.33,98.413c-0.705,0-1.416,0.019-2.129,0.056
				c-10.667,0.56-20.478,5.238-27.625,13.176c-7.148,7.938-10.775,18.183-10.217,28.85c1.15,21.956,19.836,39.006,42.027,37.843
				c22.02-1.154,38.995-20.009,37.842-42.028C177.115,115.059,159.59,98.413,138.33,98.413z"/>
		</g>
		<g>
			<path fill="#341F0F" d="M138.263,177.228c-20.643,0-37.659-16.162-38.74-36.794c-0.543-10.356,2.979-20.304,9.919-28.01
				c6.939-7.707,16.464-12.25,26.82-12.792c21.564-1.118,39.686,15.423,40.804,36.737c0.543,10.356-2.979,20.304-9.919,28.011
				s-16.464,12.251-26.82,12.793C139.635,177.209,138.945,177.228,138.263,177.228z M138.327,102.412
				c-0.635,0-1.275,0.017-1.917,0.05c-19.818,1.039-35.096,18.006-34.058,37.823c1.036,19.76,17.845,35.082,37.825,34.058
				c9.6-0.503,18.43-4.715,24.862-11.859s9.698-16.366,9.195-25.966C173.232,117.393,157.459,102.412,138.327,102.412z"/>
		</g>
		<g>
			<path fill="#341F0F" d="M138.266,173.229c-18.517,0-33.78-14.497-34.749-33.004c-0.487-9.29,2.673-18.213,8.896-25.125
				c6.225-6.913,14.767-10.988,24.058-11.475c19.34-1.038,35.6,13.835,36.601,32.953c0.487,9.29-2.672,18.213-8.896,25.126
				s-14.769,10.989-24.058,11.476C139.496,173.213,138.879,173.229,138.266,173.229z M138.322,106.411
				c-0.564,0-1.133,0.015-1.703,0.044c-8.533,0.447-16.382,4.191-22.1,10.541s-8.62,14.547-8.173,23.08
				c0.92,17.565,15.87,31.188,33.622,30.273c8.533-0.447,16.382-4.191,22.1-10.542s8.62-14.548,8.173-23.081
				C169.351,119.727,155.33,106.411,138.322,106.411z"/>
		</g>
		<g>
			<path fill="#341F0F" d="M138.27,169.229c-16.391,0-29.902-12.833-30.76-29.215c-0.891-16.974,12.195-31.507,29.17-32.396
				c17.12-0.896,31.512,12.247,32.399,29.17c0.89,16.975-12.197,31.509-29.172,32.398
				C139.358,169.216,138.812,169.229,138.27,169.229z M138.317,110.409c-0.493,0-0.99,0.014-1.489,0.039
				c-15.414,0.809-27.296,14.005-26.488,29.418c0.805,15.37,13.906,27.3,29.419,26.49c15.414-0.809,27.297-14.006,26.49-29.42
				C165.468,122.062,153.199,110.409,138.317,110.409z"/>
		</g>
		<g>
			<path fill="#341F0F" d="M138.272,165.231c-14.264,0-26.022-11.169-26.77-25.426c-0.774-14.772,10.614-27.42,25.387-28.193
				c14.87-0.805,27.423,10.656,28.195,25.385c0.774,14.772-10.614,27.422-25.387,28.196
				C139.221,165.219,138.745,165.231,138.272,165.231z M138.315,114.409c-0.423,0-0.85,0.011-1.277,0.033
				c-13.212,0.692-23.397,12.004-22.705,25.215c0.69,13.175,11.918,23.402,25.217,22.706c13.212-0.693,23.397-12.006,22.705-25.218
				C161.587,124.396,151.071,114.409,138.315,114.409z"/>
		</g>
		<g>
			<path fill="#341F0F" d="M138.274,161.231c-12.138,0-22.144-9.503-22.778-21.635c-0.32-6.09,1.752-11.939,5.832-16.471
				s9.681-7.202,15.771-7.521c12.654-0.678,23.336,9.067,23.993,21.601c0.658,12.571-9.033,23.335-21.604,23.993
				C139.082,161.221,138.676,161.231,138.274,161.231z M138.312,118.408c-0.354,0-0.709,0.009-1.066,0.027
				c-5.333,0.279-10.238,2.619-13.812,6.588s-5.388,9.091-5.108,14.425c0.575,10.978,9.957,19.494,21.014,18.921
				c11.01-0.577,19.498-10.005,18.922-21.015C157.704,126.73,148.941,118.408,138.312,118.408z"/>
		</g>
		<g>
			<path fill="#341F0F" d="M138.277,157.232c-10.01,0-18.264-7.839-18.788-17.846c-0.544-10.367,7.45-19.244,17.819-19.788
				c10.462-0.547,19.249,7.48,19.79,17.817c0.263,5.022-1.444,9.848-4.811,13.586s-7.986,5.941-13.009,6.204
				C138.944,157.224,138.609,157.232,138.277,157.232z M138.309,122.406c-0.283,0-0.566,0.008-0.852,0.022
				c-8.808,0.463-15.599,8.003-15.138,16.81c0.46,8.783,7.929,15.587,16.812,15.138c4.266-0.224,8.191-2.096,11.051-5.271
				c2.859-3.175,4.311-7.273,4.087-11.54C153.823,129.064,146.812,122.406,138.309,122.406z"/>
		</g>
		<g>
			<path fill="#341F0F" d="M138.284,153.233c-7.888,0-14.389-6.174-14.801-14.056c-0.208-3.956,1.137-7.756,3.788-10.7
				c2.65-2.943,6.289-4.679,10.246-4.886c8.216-0.459,15.162,5.891,15.587,14.033c0.43,8.166-5.866,15.159-14.034,15.588
				C138.807,153.227,138.545,153.233,138.284,153.233z M138.306,126.405c-0.212,0-0.427,0.006-0.64,0.017
				c-3.201,0.168-6.145,1.571-8.288,3.953c-2.145,2.381-3.233,5.454-3.065,8.654c0.346,6.588,5.954,11.679,12.609,11.354
				c3.2-0.169,6.145-1.572,8.288-3.953c2.145-2.382,3.232-5.456,3.064-8.656C149.94,131.398,144.684,126.405,138.306,126.405z"/>
		</g>
		<g>
			<path fill="#341F0F" d="M138.286,149.234c-5.761,0-10.509-4.51-10.81-10.267c-0.152-2.89,0.831-5.665,2.768-7.814
				c1.936-2.149,4.594-3.417,7.483-3.568c5.998-0.346,11.072,4.303,11.385,10.249c0.312,5.965-4.286,11.072-10.251,11.385
				C138.669,149.229,138.477,149.234,138.286,149.234z M138.302,130.404c-0.142,0-0.283,0.004-0.426,0.011
				c-2.134,0.112-4.097,1.048-5.525,2.636c-1.43,1.587-2.155,3.636-2.044,5.769c0.23,4.393,3.953,7.8,8.406,7.569
				c4.403-0.231,7.799-4.002,7.569-8.406C146.059,133.733,142.554,130.404,138.302,130.404z"/>
		</g>
		<g>
			<path fill="#341F0F" d="M138.291,145.236c-3.635,0-6.632-2.845-6.821-6.477c-0.097-1.823,0.523-3.574,1.745-4.931
				c1.222-1.355,2.898-2.155,4.722-2.25c3.784-0.205,6.986,2.714,7.182,6.465c0.097,1.823-0.523,3.574-1.745,4.931
				s-2.898,2.156-4.722,2.252C138.529,145.233,138.41,145.236,138.291,145.236z M138.299,134.404c-0.071,0-0.143,0.002-0.214,0.005
				c-1.067,0.057-2.049,0.523-2.764,1.317c-0.715,0.793-1.077,1.817-1.021,2.885c0.115,2.195,1.978,3.884,4.204,3.785
				c2.202-0.116,3.899-2.002,3.784-4.204C142.176,136.068,140.425,134.404,138.299,134.404z"/>
		</g>
		<g>
			<path fill="#341F0F" d="M138.293,141.236c-1.508,0-2.751-1.18-2.83-2.687c-0.082-1.561,1.121-2.896,2.682-2.978l0.15-0.004
				c1.509,0,2.752,1.179,2.83,2.685c0.082,1.562-1.121,2.898-2.683,2.979L138.293,141.236z M138.294,138.402L138.294,138.402
				l-0.001,1.417L138.294,138.402z"/>
		</g>
	</g>
	<g>
		<path fill="#341F0F" d="M136.127,260.82c-64.426,0-117.537-50.444-120.912-114.841c-1.694-32.324,9.301-63.373,30.96-87.429
			c21.659-24.055,51.389-38.235,83.713-39.929c2.14-0.112,4.308-0.169,6.443-0.169c64.427,0,117.538,50.444,120.913,114.842
			c1.694,32.324-9.301,63.373-30.959,87.428c-21.659,24.055-51.389,38.235-83.713,39.929
			C140.432,260.764,138.264,260.82,136.127,260.82z M136.331,21.287c-2.086,0-4.204,0.056-6.295,0.165
			c-31.568,1.655-60.603,15.504-81.755,38.996s-31.891,53.814-30.236,85.383c3.297,62.891,55.164,112.155,118.082,112.155
			c2.086,0,4.206-0.056,6.297-0.165c31.568-1.654,60.602-15.503,81.755-38.995c21.151-23.492,31.89-53.814,30.235-85.383
			C251.117,70.552,199.249,21.287,136.331,21.287z"/>
	</g>
	<g>
		<path fill="#341F0F" d="M136.124,265.073c-66.688,0-121.662-52.215-125.155-118.871C7.35,77.133,60.596,17.996,129.665,14.376
			c2.214-0.116,4.459-0.175,6.67-0.175c66.688,0,121.663,52.214,125.155,118.871c1.754,33.459-9.627,65.598-32.045,90.496
			c-22.42,24.898-53.191,39.576-86.65,41.329C140.579,265.014,138.335,265.073,136.124,265.073z M136.335,17.035
			c-2.161,0-4.355,0.058-6.522,0.171C62.306,20.745,10.262,78.545,13.799,146.054c3.414,65.15,57.146,116.185,122.325,116.185
			c2.161,0,4.356-0.058,6.522-0.171c32.702-1.714,62.78-16.06,84.692-40.396c21.911-24.336,33.035-55.749,31.321-88.451
			C255.246,68.07,201.515,17.035,136.335,17.035z"/>
	</g>
	<g>
		<path fill="#341F0F" d="M138.183,270.216c-70.078,0-127.849-54.87-131.519-124.916C2.86,72.719,58.814,10.574,131.396,6.771
			c2.328-0.122,4.687-0.185,7.009-0.185c70.079,0,127.85,54.87,131.52,124.917c1.843,35.16-10.116,68.933-33.675,95.098
			c-23.559,26.164-55.896,41.589-91.057,43.431C142.864,270.153,140.506,270.216,138.183,270.216z M138.404,9.421
			c-2.273,0-4.582,0.061-6.861,0.18C60.524,13.323,5.772,74.131,9.494,145.151c3.592,68.54,60.119,122.229,128.688,122.229
			c2.274,0,4.583-0.061,6.86-0.18c34.405-1.803,66.048-16.896,89.1-42.497c23.051-25.603,34.754-58.648,32.951-93.053
			C263.502,63.111,206.975,9.421,138.404,9.421z"/>
	</g>
	<g>
		<g>
			<g>
				<path fill="#B58550" d="M89.392,179.797l9.804-0.512l-4.174-91.191l-12.395,0.647l-1.185-22.639l40.751-2.137l1.848,45.818
					c0.026,0.499,0.047,1.006,0.06,1.524c6.052-5.544,14.309-8.825,23.561-9.31c0.895-0.047,1.788-0.071,2.653-0.071
					c9.985,0,18.025,3.103,23.896,9.222c5.992,6.248,9.337,15.287,9.943,26.865c0.439,8.377,0.707,17.101,0.943,24.797l0.008,0.271
					c0.11,3.621,0.233,7.637,0.378,11.68l11.196-0.588l1.188,22.644l-48.647,2.55l-1.186-22.643l9.844-0.517
					c-0.116-3.403-0.216-6.823-0.312-10.154l-0.02-0.667c-0.214-7.428-0.436-15.111-0.828-22.613
					c-0.38-7.235-2.906-15.86-12.786-15.86c-0.308,0-0.622,0.008-0.943,0.024c-10.597,0.556-17.439,9.674-17.027,22.689
					l0.907,28.207l11.503-0.603l1.188,22.642l-48.979,2.567L89.392,179.797z"/>
			</g>
			<g>
				<path fill="#341F0F" d="M121.107,65.158l0.046,1.146l0.093,2.294l1.662,41.231c0.07,1.326,0.093,2.719,0.068,4.204
					c5.985-6.534,14.642-10.374,24.744-10.903c0.879-0.046,1.744-0.069,2.594-0.069c9.668,0,17.423,2.979,23.078,8.873
					c5.798,6.046,9.037,14.841,9.63,26.14c0.433,8.263,0.692,16.656,0.94,24.772l0.005,0.117c0.122,4.005,0.259,8.503,0.424,12.991
					l7.819-0.409l2.265-0.119l1.132-0.06l0.06,1.133l0.119,2.265l0.712,13.583l0.118,2.266l0.06,1.132l-1.133,0.06l-2.264,0.118
					l-39.59,2.075l-2.266,0.118l-1.132,0.06l-0.06-1.133l-0.118-2.264l-0.712-13.584l-0.119-2.265l-0.059-1.132l1.132-0.06
					l2.265-0.119l6.429-0.337c-0.136-3.829-0.247-7.692-0.356-11.44l-0.01-0.374l-0.004-0.111
					c-0.214-7.449-0.437-15.15-0.829-22.643c-0.336-6.404-2.61-16.935-13.918-16.935c-0.327,0-0.661,0.009-1.003,0.026
					c-11.26,0.59-18.534,10.178-18.101,23.857l0.944,29.363l8.129-0.426l2.265-0.119l1.132-0.059l0.06,1.132l0.118,2.265
					l0.713,13.584l0.118,2.264l0.06,1.133l-1.133,0.059l-2.264,0.119l-39.922,2.092l-2.265,0.119l-1.132,0.06l-0.061-1.132
					l-0.118-2.266l-0.712-13.583l-0.118-2.265l-0.06-1.133l1.133-0.059l2.264-0.119l6.398-0.335l-4.277-93.457l-9.004,0.472
					l-2.265,0.119L83.7,87.551l-0.06-1.132l-0.118-2.265l-0.712-13.583l-0.119-2.265l-0.059-1.132l1.132-0.06l2.265-0.118
					l31.641-1.658l2.291-0.12L121.107,65.158 M123.281,62.772l-2.293,0.121l-1.146,0.061l-2.291,0.12L85.91,64.732l-2.264,0.118
					l-1.133,0.06l-2.263,0.119l0.117,2.263l0.059,1.132l0.119,2.267l0.712,13.583l0.118,2.264l0.06,1.133l0.119,2.263l2.263-0.117
					l1.133-0.059l2.267-0.119l6.724-0.353l4.071,88.927l-4.15,0.217l-2.264,0.119l-1.131,0.059l-2.267,0.117l0.119,2.267l0.06,1.133
					l0.117,2.264l0.713,13.584l0.119,2.266l0.06,1.132l0.119,2.265l2.265-0.119l1.132-0.06l2.265-0.119l39.922-2.092l2.264-0.119
					l1.131-0.059l2.267-0.117l-0.119-2.267l-0.06-1.133l-0.118-2.263l-0.712-13.585l-0.119-2.265l-0.06-1.132l-0.119-2.263
					l-2.263,0.117l-1.132,0.059l-2.267,0.119l-5.817,0.305l-0.87-27.051c-0.392-12.351,6.02-20.999,15.953-21.52
					c0.301-0.016,0.596-0.023,0.884-0.023c8.99,0,11.3,8.04,11.653,14.786c0.393,7.488,0.613,15.165,0.828,22.589l0.002,0.105
					l0.012,0.38l0.004,0.165c0.086,2.968,0.175,6.017,0.275,9.062l-4.205,0.221l-2.265,0.119l-1.132,0.06l-2.263,0.119l0.116,2.263
					l0.06,1.132l0.119,2.267l0.712,13.584l0.118,2.263l0.06,1.134l0.119,2.265l2.265-0.119l1.132-0.06l2.265-0.118l39.591-2.075
					l2.263-0.118l1.134-0.06l2.265-0.119l-0.119-2.265l-0.06-1.132l-0.118-2.265l-0.712-13.583l-0.119-2.266l-0.06-1.133
					l-0.119-2.265l-2.265,0.119l-1.132,0.06l-2.265,0.119l-5.516,0.289c-0.128-3.654-0.238-7.267-0.337-10.521l-0.005-0.154
					l-0.004-0.123c-0.236-7.696-0.504-16.426-0.943-24.815c-0.621-11.858-4.072-21.141-10.258-27.591
					c-6.094-6.352-14.408-9.571-24.715-9.571c-0.885,0-1.798,0.024-2.713,0.072c-8.629,0.452-16.426,3.277-22.46,8.065l-1.63-40.424
					l-0.093-2.295l-0.046-1.146L123.281,62.772L123.281,62.772z"/>
			</g>
		</g>
		<g>
			<g>
				<g>
					<path fill="#FFFFFF" d="M92.967,183.017l9.781-0.512l-4.486-97.987l-12.416,0.65l-0.83-15.848l33.919-1.777l1.71,42.42
						c0.198,3.783-0.021,7.696-0.407,11.938c5.11-9.817,14.988-15.845,27.602-16.505c0.831-0.044,1.646-0.065,2.445-0.065
						c18.54,0,29.362,11.671,30.474,32.862c0.435,8.278,0.692,16.698,0.942,24.841c0.154,5.02,0.313,10.196,0.513,15.308
						l11.249-0.59l0.831,15.849l-41.855,2.192l-0.83-15.848l9.789-0.514c-0.176-4.665-0.312-9.41-0.445-14.011
						c-0.217-7.503-0.44-15.263-0.836-22.823c-0.636-12.128-6.539-19.084-16.196-19.084c-0.364,0-0.732,0.01-1.108,0.029
						c-12.587,0.659-20.725,11.187-20.25,26.195l1.021,31.676l11.572-0.606l0.831,15.849l-42.187,2.21L92.967,183.017z"/>
				</g>
				<g>
					<path fill="#341F0F" d="M117.848,68.735l1.664,41.273c0.304,5.798-0.378,11.813-1.155,19.161l0.33-0.017
						c2.897-11.28,11.983-21.724,29.212-22.626c0.811-0.043,1.606-0.063,2.386-0.063c18.647,0,28.308,12.071,29.342,31.788
						c0.721,13.748,0.945,27.523,1.499,41.281l11.264-0.591l0.713,13.584l-39.591,2.074l-0.712-13.583l9.773-0.513
						c-0.493-12.597-0.666-25.379-1.326-37.968c-0.611-11.685-6.331-20.157-17.327-20.158c-0.384,0-0.772,0.011-1.168,0.031
						c-12.756,0.668-21.832,11.277-21.323,27.363l1.058,32.832l11.595-0.607l0.713,13.584l-39.922,2.092l-0.713-13.584l9.774-0.512
						L99.342,83.325l-12.423,0.651l-0.712-13.583L117.848,68.735 M120.021,66.351l-2.293,0.12l-31.641,1.658l-2.264,0.119
						l0.118,2.264l0.712,13.584l0.119,2.264l2.264-0.118l10.143-0.532l4.385,95.723l-7.525,0.394l-2.264,0.118l0.117,2.266
						l0.714,13.584l0.118,2.264l2.266-0.118l39.922-2.092l2.264-0.119l-0.118-2.265l-0.714-13.584l-0.117-2.264l-2.266,0.118
						l-9.283,0.486l-0.982-30.52c-0.455-14.344,7.25-24.401,19.174-25.025c0.356-0.019,0.705-0.028,1.05-0.028
						c12.743,0.001,14.78,12.595,15.063,18.01c0.395,7.547,0.619,15.299,0.836,22.796c0.121,4.237,0.247,8.597,0.404,12.905
						l-7.543,0.396l-2.264,0.119l0.118,2.265l0.712,13.582l0.119,2.266l2.264-0.119l39.592-2.074l2.264-0.119l-0.118-2.265
						l-0.713-13.584l-0.118-2.265l-2.266,0.119l-8.968,0.471c-0.179-4.732-0.325-9.509-0.468-14.149
						c-0.25-8.149-0.509-16.575-0.943-24.866c-0.553-10.552-3.459-18.854-8.637-24.676c-5.464-6.145-13.193-9.261-22.97-9.261
						c-0.817,0-1.66,0.022-2.505,0.066c-11.229,0.588-20.362,5.3-26.062,13.093c0.146-2.565,0.187-5.035,0.059-7.465l-1.663-41.246
						L120.021,66.351L120.021,66.351z"/>
				</g>
			</g>
		</g>
	</g>
</g>
</svg>
