<?xml version="1.0" encoding="utf-8"?>
<!-- Generator: Adobe Illustrator 16.0.0, SVG Export Plug-In . SVG Version: 6.00 Build 0)  -->
<!DOCTYPE svg PUBLIC "-//W3C//DTD SVG 1.1//EN" "http://www.w3.org/Graphics/SVG/1.1/DTD/svg11.dtd">
<svg version="1.1" id="Ebene_1" xmlns="http://www.w3.org/2000/svg" xmlns:xlink="http://www.w3.org/1999/xlink" x="0px" y="0px"
	 width="184.252px" height="85.04px" viewBox="0 0 184.252 85.04" enable-background="new 0 0 184.252 85.04" xml:space="preserve">
<g>
	<g>
		<path fill="#1A1420" d="M152.705,24.961c0-1.455-0.746-2.456-2.857-3.711l-1.674-1c-1.383-0.837-1.982-1.347-1.982-2.202
			c0-1.328,0.801-1.728,2.674-1.728c1.055,0,2.329,0.055,3.129,0.108h0.037c0.182,0,0.309-0.108,0.309-0.291v-0.781
			c0-0.183-0.127-0.273-0.309-0.31c-0.691-0.11-2.093-0.219-3.166-0.219c-2.765,0-4.348,1.019-4.348,3.22
			c0,1.456,0.837,2.383,2.511,3.402l1.765,1.074c1.656,1.018,2.183,1.527,2.183,2.437c0,1.274-0.582,2.147-2.765,2.147
			c-0.838,0-2.166-0.036-3.002-0.109h-0.055c-0.164,0-0.309,0.091-0.309,0.291v0.727c0,0.201,0.035,0.273,0.345,0.328
			c0.802,0.127,1.747,0.255,3.021,0.255C151.795,28.6,152.705,26.708,152.705,24.961 M141.517,28.254v-0.928
			c0-0.127-0.073-0.218-0.2-0.218h-3.512c-1.928,0-2.237-0.51-2.237-1.893v-3.056h5.585c0.2,0,0.364-0.164,0.364-0.364v-0.691
			c0-0.2-0.164-0.363-0.364-0.363h-5.585v-2.529c0-1.383,0.31-1.892,2.237-1.892h3.512c0.127,0,0.2-0.092,0.2-0.219v-0.909
			c0-0.109-0.073-0.236-0.183-0.256c-0.764-0.071-2.474-0.108-3.547-0.108c-2.547,0-3.875,0.965-3.875,3.384v7.004
			c0,2.419,1.328,3.384,3.875,3.384c1.073,0,2.855-0.019,3.547-0.091C141.443,28.492,141.517,28.364,141.517,28.254 M129.982,28.109
			V15.32c0-0.2-0.164-0.363-0.363-0.363h-0.929c-0.2,0-0.362,0.163-0.362,0.363v5.275h-6.223V15.32c0-0.2-0.164-0.363-0.363-0.363
			h-0.929c-0.2,0-0.364,0.163-0.364,0.363v12.789c0,0.2,0.164,0.363,0.364,0.363h0.929c0.199,0,0.363-0.163,0.363-0.363V22.07h6.223
			v6.039c0,0.2,0.162,0.363,0.362,0.363h0.929C129.818,28.472,129.982,28.309,129.982,28.109 M117.303,28v-0.746
			c0-0.2-0.092-0.291-0.291-0.291h-0.073c-0.653,0.055-1.964,0.146-3.001,0.146c-1.783,0-3.166-1.073-3.166-4.131v-2.527
			c0-3.093,1.383-4.13,3.166-4.13c1.055,0,2.4,0.108,3.057,0.164h0.055c0.182,0,0.218-0.092,0.218-0.2v-0.928
			c0-0.164-0.127-0.219-0.291-0.237c-0.802-0.127-1.91-0.291-3.056-0.291c-2.238,0-4.803,1.165-4.803,5.622v2.527
			c0,4.422,2.564,5.622,4.803,5.622c1.545,0,2.254-0.091,3.019-0.236C117.14,28.328,117.303,28.218,117.303,28 M106.024,24.961
			c0-1.455-0.746-2.456-2.856-3.711l-1.674-1c-1.383-0.837-1.982-1.347-1.982-2.202c0-1.328,0.8-1.728,2.674-1.728
			c1.055,0,2.329,0.055,3.129,0.108h0.036c0.183,0,0.31-0.108,0.31-0.291v-0.781c0-0.183-0.127-0.273-0.31-0.31
			c-0.69-0.11-2.092-0.219-3.165-0.219c-2.765,0-4.349,1.019-4.349,3.22c0,1.456,0.838,2.383,2.512,3.402l1.764,1.074
			c1.656,1.018,2.183,1.527,2.183,2.437c0,1.274-0.582,2.147-2.764,2.147c-0.838,0-2.165-0.036-3.003-0.109h-0.054
			c-0.164,0-0.31,0.091-0.31,0.291v0.727c0,0.201,0.037,0.273,0.346,0.328c0.801,0.127,1.747,0.255,3.021,0.255
			C105.115,28.6,106.024,26.708,106.024,24.961 M94.235,28.109V15.301c0-0.2-0.145-0.345-0.326-0.345h-1.002
			c-0.199,0-0.326,0.163-0.326,0.345v12.808c0,0.2,0.145,0.363,0.326,0.363h1.002C94.108,28.472,94.235,28.291,94.235,28.109
			 M83.376,13.428v-1.474c0-0.183-0.183-0.364-0.364-0.364h-0.71c-0.182,0-0.363,0.182-0.363,0.364v1.474
			c0,0.2,0.182,0.346,0.363,0.346h0.71C83.193,13.774,83.376,13.628,83.376,13.428 M86.559,13.428v-1.474
			c0-0.183-0.183-0.364-0.364-0.364h-0.709c-0.182,0-0.363,0.182-0.363,0.364v1.474c0,0.2,0.182,0.346,0.363,0.346h0.709
			C86.376,13.774,86.559,13.628,86.559,13.428 M86.141,22.579H82.12l1.655-5.985c0.054-0.2,0.164-0.328,0.364-0.328
			c0.182,0,0.291,0.128,0.345,0.328L86.141,22.579z M89.36,28.181c0-0.036,0-0.091-0.018-0.127l-3.366-11.86
			c-0.31-1.11-1.164-1.365-1.837-1.365c-0.691,0-1.547,0.272-1.855,1.383l-3.365,11.843c-0.02,0.036-0.02,0.091-0.02,0.127
			c0,0.164,0.128,0.291,0.311,0.291h1.072c0.146,0,0.291-0.127,0.327-0.272l1.165-4.185h4.712l1.183,4.185
			c0.035,0.146,0.146,0.272,0.309,0.272h1.074C89.251,28.472,89.36,28.345,89.36,28.181 M75.936,19.012
			c0,1.893-0.946,2.693-3.438,2.693c-0.474,0-1.4-0.055-1.819-0.073v-5.33c0.437-0.037,1.255-0.073,1.819-0.073
			c2.347,0,3.438,0.711,3.438,2.548V19.012z M77.591,19.012v-0.235c0-2.93-2.147-3.948-5.094-3.948c-1.056,0-2.237,0.055-3.02,0.146
			c-0.273,0.036-0.438,0.2-0.438,0.455v12.68c0,0.2,0.146,0.363,0.328,0.363h0.982c0.2,0,0.327-0.182,0.327-0.363v-5.112
			c0.473,0.037,1.237,0.091,1.819,0.091C75.443,23.087,77.591,22.051,77.591,19.012 M63.765,22.887c0,3.058-1.255,4.222-3.238,4.222
			c-2.001,0-3.256-1.164-3.256-4.222v-2.346c0-3.057,1.273-4.221,3.256-4.221c2.001,0,3.238,1.164,3.238,4.221V22.887z
			 M65.438,22.887v-2.346c0-4.039-2.057-5.713-4.912-5.713s-4.93,1.674-4.93,5.713v2.346c0,4.039,2.074,5.713,4.93,5.713
			S65.438,26.926,65.438,22.887 M50.921,18.868c0,1.965-1.219,2.528-3.455,2.528c-0.42,0-1.201-0.019-2.002-0.036v-4.984
			c0.437-0.055,1.438-0.055,2.002-0.055c2.273,0,3.455,0.6,3.455,2.42V18.868z M53.068,28.237c0-0.056-0.018-0.109-0.055-0.164
			l-3.312-5.53c1.656-0.438,2.856-1.638,2.856-3.675v-0.127c0-2.947-2.22-3.912-5.093-3.912c-1.055,0-2.42,0.055-3.202,0.146
			c-0.328,0.036-0.437,0.146-0.437,0.4v12.734c0,0.2,0.146,0.363,0.328,0.363h0.981c0.2,0,0.327-0.182,0.327-0.363V22.76
			c0.965,0.036,1.4,0.056,2.002,0.056h0.309h0.164l3.256,5.421c0.146,0.235,0.256,0.235,0.473,0.235h1.164
			C52.978,28.472,53.068,28.364,53.068,28.237 M39.952,23.56v-8.259c0-0.2-0.164-0.345-0.346-0.345h-0.982
			c-0.199,0-0.346,0.163-0.346,0.345v8.259c0,2.365-0.728,3.621-2.982,3.621c-2.256,0-2.984-1.273-2.984-3.621v-8.259
			c0-0.2-0.164-0.345-0.346-0.345h-0.982c-0.199,0-0.346,0.163-0.346,0.345v8.259c0,3.476,1.71,5.04,4.658,5.04
			C38.243,28.6,39.952,27.036,39.952,23.56 M27.182,28.254v-0.928c0-0.127-0.073-0.218-0.2-0.218h-3.511
			c-1.929,0-2.238-0.51-2.238-1.893v-3.056h5.585c0.2,0,0.364-0.164,0.364-0.364v-0.691c0-0.2-0.164-0.363-0.364-0.363h-5.585
			v-2.529c0-1.383,0.31-1.892,2.238-1.892h3.511c0.127,0,0.2-0.092,0.2-0.219v-0.909c0-0.109-0.073-0.236-0.183-0.256
			c-0.764-0.071-2.474-0.108-3.547-0.108c-2.547,0-3.875,0.965-3.875,3.384v7.004c0,2.419,1.328,3.384,3.875,3.384
			c1.073,0,2.856-0.019,3.547-0.091C27.108,28.492,27.182,28.364,27.182,28.254"/>
	</g>
	<text transform="matrix(1 0 0 1 152.7041 28.4727)" fill="#1A1420" font-family="'NeoSans'" font-size="18.192"> </text>
	<g>
		<path fill="#1A1420" d="M164.674,49.589V37.074c0-0.399-0.326-0.728-0.727-0.728h-1.492c-0.291,0-0.546,0.182-0.673,0.437
			l-2.747,5.567c-0.091,0.163-0.128,0.253-0.2,0.253c-0.073,0-0.108-0.09-0.2-0.253l-2.746-5.567
			c-0.129-0.255-0.383-0.437-0.674-0.437h-1.492c-0.399,0-0.728,0.328-0.728,0.728v12.516c0,0.182,0.146,0.273,0.31,0.273h1.838
			c0.162,0,0.291-0.182,0.291-0.364V41.04c0-0.128,0.018-0.182,0.054-0.182c0.019,0,0.055,0.054,0.091,0.109l1.766,3.474
			c0.108,0.201,0.346,0.31,0.582,0.31h1.838c0.235,0,0.473-0.108,0.582-0.31l1.746-3.474c0.035-0.056,0.072-0.109,0.09-0.109
			c0.037,0,0.056,0.054,0.056,0.182v8.459c0,0.183,0.127,0.364,0.291,0.364h1.837C164.529,49.863,164.674,49.771,164.674,49.589
			 M148.902,44.859v-8.167c0-0.2-0.164-0.346-0.364-0.346h-1.801c-0.2,0-0.364,0.146-0.364,0.346v8.167
			c0,2.074-0.509,3.057-2.475,3.057c-1.963,0-2.473-0.982-2.473-3.057v-8.167c0-0.2-0.164-0.346-0.365-0.346h-1.801
			c-0.199,0-0.363,0.146-0.363,0.346v8.167c0,3.875,2.074,5.148,5.002,5.148C146.828,50.007,148.902,48.734,148.902,44.859
			 M135.076,49.372v-1.165c0-0.199-0.163-0.363-0.363-0.363h-3.712c-1.055,0-1.437-0.363-1.437-1.564v-2.348h4.93
			c0.2,0,0.363-0.162,0.363-0.363v-1.309c0-0.2-0.163-0.364-0.363-0.364h-4.93V39.93c0-1.201,0.382-1.564,1.437-1.564h3.712
			c0.2,0,0.363-0.164,0.363-0.364v-1.165c0-0.254-0.09-0.345-0.363-0.382c-0.582-0.091-1.292-0.254-3.457-0.254
			c-2.365,0-4.201,0.636-4.201,3.729v6.349c0,3.093,1.836,3.729,4.201,3.729c2.165,0,2.875-0.162,3.457-0.254
			C134.986,49.716,135.076,49.625,135.076,49.372 M123.416,46.206c0-1.437-0.527-2.601-2.529-3.711l-2.183-1.219
			c-1.183-0.655-1.492-1.019-1.492-1.619c0-0.817,0.564-1.291,1.91-1.291c1.183,0,2.384,0.072,3.584,0.182h0.036
			c0.182,0,0.311-0.146,0.311-0.327v-1.347c0-0.182-0.146-0.309-0.328-0.346c-0.619-0.145-2.293-0.327-3.494-0.327
			c-3.383,0-4.547,1.455-4.547,3.456c0,1.274,0.455,2.329,2.146,3.329l2.4,1.438c1.201,0.709,1.548,1.073,1.548,1.782
			c0,1.056-0.491,1.638-2.111,1.638c-0.673,0-2.491-0.091-3.219-0.182h-0.037c-0.183,0-0.347,0.145-0.347,0.346v1.309
			c0,0.201,0.164,0.328,0.347,0.365c0.873,0.199,1.856,0.326,3.22,0.326C122.27,50.007,123.416,48.043,123.416,46.206
			 M111.137,44.859v-8.167c0-0.2-0.164-0.346-0.365-0.346h-1.801c-0.199,0-0.363,0.146-0.363,0.346v8.167
			c0,2.074-0.51,3.057-2.475,3.057c-1.964,0-2.474-0.982-2.474-3.057v-8.167c0-0.2-0.163-0.346-0.363-0.346h-1.801
			c-0.201,0-0.364,0.146-0.364,0.346v8.167c0,3.875,2.074,5.148,5.002,5.148C109.062,50.007,111.137,48.734,111.137,44.859
			 M97.038,49.589V37.074c0-0.399-0.328-0.728-0.729-0.728h-1.491c-0.291,0-0.546,0.182-0.673,0.437l-2.748,5.567
			c-0.09,0.163-0.127,0.253-0.199,0.253c-0.073,0-0.109-0.09-0.2-0.253l-2.747-5.567c-0.127-0.255-0.382-0.437-0.673-0.437h-1.492
			c-0.399,0-0.728,0.328-0.728,0.728v12.516c0,0.182,0.146,0.273,0.31,0.273h1.837c0.164,0,0.291-0.182,0.291-0.364V41.04
			c0-0.128,0.018-0.182,0.055-0.182c0.019,0,0.055,0.054,0.092,0.109l1.764,3.474c0.109,0.201,0.346,0.31,0.582,0.31h1.838
			c0.236,0,0.473-0.108,0.582-0.31l1.746-3.474c0.037-0.056,0.073-0.109,0.091-0.109c0.037,0,0.056,0.054,0.056,0.182v8.459
			c0,0.183,0.127,0.364,0.291,0.364h1.836C96.892,49.863,97.038,49.771,97.038,49.589 M81.447,49.372v-1.165
			c0-0.199-0.163-0.363-0.363-0.363h-3.712c-1.055,0-1.438-0.363-1.438-1.564v-2.348h4.931c0.2,0,0.364-0.162,0.364-0.363v-1.309
			c0-0.2-0.164-0.364-0.364-0.364h-4.931V39.93c0-1.201,0.383-1.564,1.438-1.564h3.712c0.2,0,0.363-0.164,0.363-0.364v-1.165
			c0-0.254-0.091-0.345-0.363-0.382c-0.583-0.091-1.292-0.254-3.457-0.254c-2.364,0-4.202,0.636-4.202,3.729v6.349
			c0,3.093,1.838,3.729,4.202,3.729c2.165,0,2.874-0.162,3.457-0.254C81.356,49.716,81.447,49.625,81.447,49.372 M69.786,46.206
			c0-1.437-0.527-2.601-2.527-3.711l-2.184-1.219c-1.184-0.655-1.492-1.019-1.492-1.619c0-0.817,0.564-1.291,1.91-1.291
			c1.184,0,2.383,0.072,3.584,0.182h0.036c0.182,0,0.31-0.146,0.31-0.327v-1.347c0-0.182-0.146-0.309-0.328-0.346
			c-0.617-0.145-2.291-0.327-3.492-0.327c-3.383,0-4.549,1.455-4.549,3.456c0,1.274,0.455,2.329,2.147,3.329l2.401,1.438
			c1.201,0.709,1.547,1.073,1.547,1.782c0,1.056-0.492,1.638-2.111,1.638c-0.673,0-2.492-0.091-3.22-0.182h-0.036
			c-0.182,0-0.346,0.145-0.346,0.346v1.309c0,0.201,0.164,0.328,0.346,0.365c0.873,0.199,1.855,0.326,3.22,0.326
			C68.64,50.007,69.786,48.043,69.786,46.206 M57.416,49.134V36.692c0-0.2-0.146-0.346-0.346-0.346h-1.563
			c-0.201,0-0.347,0.146-0.347,0.346v9.569c0,0.108-0.054,0.164-0.091,0.164c-0.055,0-0.109-0.056-0.145-0.146l-4.24-9.351
			c-0.217-0.474-0.418-0.582-0.799-0.582H47.92c-0.399,0-0.728,0.328-0.728,0.728v12.425c0,0.2,0.164,0.364,0.363,0.364h1.547
			c0.201,0,0.346-0.164,0.346-0.364v-9.15c0-0.109,0.036-0.146,0.091-0.146c0.056,0,0.108,0.036,0.164,0.146l4.038,8.859
			c0.291,0.655,0.673,0.655,1.109,0.655h1.838C57.089,49.863,57.416,49.535,57.416,49.134 M40.097,44.023h-3.201l1.31-5.403
			c0.056-0.218,0.11-0.291,0.292-0.291s0.236,0.073,0.291,0.291L40.097,44.023z M44.027,49.554c0-0.02-0.019-0.056-0.019-0.092
			l-2.983-11.406c-0.437-1.692-1.746-1.855-2.528-1.855c-0.783,0-2.092,0.163-2.529,1.855l-2.983,11.406
			c0,0.036-0.019,0.072-0.019,0.092c0,0.182,0.146,0.309,0.328,0.309h1.928c0.164,0,0.31-0.146,0.347-0.309l0.837-3.457h4.184
			l0.836,3.457c0.037,0.162,0.182,0.309,0.346,0.309h1.929C43.882,49.863,44.027,49.736,44.027,49.554 M29.802,49.499V36.692
			c0-0.2-0.164-0.346-0.365-0.346h-1.801c-0.199,0-0.363,0.146-0.363,0.346v5.021h-5.166v-5.021c0-0.2-0.164-0.346-0.364-0.346
			H19.94c-0.199,0-0.363,0.146-0.363,0.346v12.807c0,0.2,0.164,0.364,0.363,0.364h1.802c0.2,0,0.364-0.164,0.364-0.364v-5.567h5.166
			v5.567c0,0.2,0.164,0.364,0.363,0.364h1.801C29.638,49.863,29.802,49.699,29.802,49.499"/>
	</g>
	<text transform="matrix(1 0 0 1 164.6748 49.8618)" fill="#1A1420" font-family="'NeoSans'" font-size="18.192"> </text>
	<g>
		<path fill="#1A1420" d="M85.686,73.14c0-0.072-0.036-0.164-0.091-0.218l-5.477-6.549l5.477-6.187
			c0.055-0.054,0.072-0.127,0.072-0.181c0-0.11-0.072-0.2-0.254-0.2h-1.311c-0.182,0-0.254,0.055-0.363,0.164l-5.24,6.057v-5.875
			c0-0.2-0.164-0.346-0.345-0.346h-0.965c-0.2,0-0.345,0.164-0.345,0.346v12.807c0,0.199,0.145,0.363,0.326,0.363h1.002
			c0.199,0,0.326-0.182,0.326-0.363V66.9l5.131,6.24c0.109,0.129,0.236,0.182,0.4,0.182h1.42
			C85.612,73.322,85.686,73.232,85.686,73.14 M73.698,72.849v-0.746c0-0.199-0.092-0.291-0.291-0.291h-0.074
			c-0.654,0.056-1.965,0.146-3.002,0.146c-1.783,0-3.164-1.074-3.164-4.13v-2.529c0-3.092,1.381-4.129,3.164-4.129
			c1.056,0,2.401,0.108,3.057,0.164h0.055c0.182,0,0.219-0.091,0.219-0.201v-0.927c0-0.164-0.127-0.219-0.291-0.236
			c-0.801-0.128-1.91-0.291-3.057-0.291c-2.238,0-4.803,1.163-4.803,5.62v2.529c0,4.421,2.564,5.62,4.803,5.62
			c1.546,0,2.256-0.09,3.02-0.235C73.534,73.177,73.698,73.068,73.698,72.849 M62.327,73.105v-0.929
			c0-0.127-0.072-0.218-0.199-0.218h-3.512c-1.929,0-2.238-0.51-2.238-1.893v-3.057h5.586c0.199,0,0.363-0.162,0.363-0.363v-0.691
			c0-0.2-0.164-0.363-0.363-0.363h-5.586v-2.529c0-1.383,0.31-1.892,2.238-1.892h3.512c0.127,0,0.199-0.091,0.199-0.218v-0.91
			c0-0.109-0.072-0.236-0.182-0.255c-0.764-0.073-2.475-0.108-3.548-0.108c-2.547,0-3.875,0.963-3.875,3.383v7.004
			c0,2.42,1.328,3.383,3.875,3.383c1.073,0,2.856-0.018,3.548-0.09C62.255,73.34,62.327,73.213,62.327,73.105 M49.647,69.593
			c0,1.965-1.4,2.456-3.656,2.456c-0.637,0-1.291-0.055-1.893-0.073v-5.002H46.9c2.147,0,2.747,1.109,2.747,2.309V69.593z
			 M49.575,63.48c0,1.146-0.564,2.166-2.675,2.166h-2.802v-4.513c0.51-0.019,1.184-0.054,1.801-0.054
			c2.221,0,3.676,0.363,3.676,2.109V63.48z M51.303,69.593v-0.311c0-1.399-0.765-2.51-2.019-2.946
			c1.236-0.474,1.946-1.51,1.946-2.856v-0.291c0-2.746-2.438-3.51-5.331-3.51c-1.182,0-2.292,0.072-2.893,0.145
			c-0.381,0.037-0.581,0.255-0.581,0.674v12.115c0,0.455,0.182,0.619,0.6,0.674c0.69,0.109,1.765,0.162,2.966,0.162
			C48.829,73.449,51.303,72.65,51.303,69.593 M32.983,58.242v-1.475c0-0.181-0.182-0.363-0.363-0.363h-0.709
			c-0.183,0-0.365,0.183-0.365,0.363v1.475c0,0.199,0.183,0.346,0.365,0.346h0.709C32.802,58.587,32.983,58.441,32.983,58.242
			 M36.167,58.242v-1.475c0-0.181-0.182-0.363-0.363-0.363h-0.709c-0.182,0-0.364,0.183-0.364,0.363v1.475
			c0,0.199,0.183,0.346,0.364,0.346h0.709C35.985,58.587,36.167,58.441,36.167,58.242 M38.551,68.411v-8.259
			c0-0.2-0.164-0.346-0.347-0.346h-0.981c-0.2,0-0.347,0.164-0.347,0.346v8.259c0,2.364-0.727,3.62-2.982,3.62
			s-2.982-1.273-2.982-3.62v-8.259c0-0.2-0.164-0.346-0.347-0.346h-0.983c-0.199,0-0.345,0.164-0.345,0.346v8.259
			c0,3.475,1.71,5.038,4.657,5.038S38.551,71.885,38.551,68.411 M27.182,73.031v-0.854c0-0.127-0.073-0.218-0.2-0.218h-3.511
			c-1.929,0-2.238-0.51-2.238-1.893v-9.896c0-0.199-0.163-0.363-0.364-0.363h-0.927c-0.2,0-0.364,0.164-0.364,0.363v9.896
			c0,3.002,1.928,3.383,3.875,3.383c1.711,0,3.074-0.09,3.547-0.162C27.108,73.269,27.182,73.14,27.182,73.031"/>
	</g>
</g>
</svg>
