<?xml version="1.0" encoding="utf-8"?>
<!-- Generator: Adobe Illustrator 16.0.0, SVG Export Plug-In . SVG Version: 6.00 Build 0)  -->
<!DOCTYPE svg PUBLIC "-//W3C//DTD SVG 1.1//EN" "http://www.w3.org/Graphics/SVG/1.1/DTD/svg11.dtd">
<svg version="1.1" id="Ebene_1" xmlns="http://www.w3.org/2000/svg" xmlns:xlink="http://www.w3.org/1999/xlink" x="0px" y="0px"
	 width="226.771px" height="222.492px" viewBox="0 0 226.771 222.492" enable-background="new 0 0 226.771 222.492"
	 xml:space="preserve">
<g>
	<g>
		<path fill="#9D0E1C" d="M226.523,122.372c-1.216,11.905-6.998,22.456-11.584,32.843c-4.751,10.764-8.776,22.104-16.466,30.683
			c-7.768,8.664-18.638,13.883-28.694,19.738c-9.955,5.798-19.838,12.706-31.34,15.185c-11.098,2.391-22.912,0.289-34.816-0.927
			s-23.898-1.546-34.284-6.132c-10.764-4.752-19.045-13.516-27.624-21.207c-8.664-7.768-18.255-15.076-24.111-25.132
			c-5.798-9.955-7.448-21.876-9.926-33.378c-2.391-11.098-5.922-22.6-4.706-34.504c1.216-11.905,6.999-22.455,11.584-32.842
			c4.752-10.764,8.777-22.105,16.467-30.684c7.768-8.664,18.64-13.883,28.694-19.738C69.673,10.479,79.556,3.57,91.058,1.093
			c11.098-2.392,22.912-0.29,34.816,0.927c11.905,1.216,23.898,1.545,34.284,6.131c10.764,4.752,19.046,13.518,27.625,21.208
			c8.664,7.768,18.255,15.076,24.11,25.132c5.798,9.955,7.448,21.876,9.925,33.379C224.21,98.967,227.739,110.468,226.523,122.372z"
			/>
	</g>
	<g>
		<path fill="#C10B25" d="M197.327,44.861c7.337,9.289,11.457,20.224,15.355,30.756c4.041,10.915,7.921,21.955,8.37,33.344
			c0.454,11.501-2.58,22.821-5.684,33.905c-3.073,10.974-6.329,22.228-12.788,31.91c-6.233,9.343-15.26,16.732-24.549,24.069
			c-9.288,7.338-18.567,14.408-29.098,18.307c-10.915,4.041-22.616,4.602-34.004,5.051c-11.501,0.452-23.217,0.781-34.301-2.323
			c-10.973-3.075-20.815-9.404-30.497-15.862c-9.342-6.232-19.027-12.771-26.365-22.061c-7.336-9.29-11.456-20.226-15.354-30.757
			c-4.04-10.914-7.919-21.954-8.367-33.342c-0.453-11.502,2.581-22.822,5.686-33.905c3.073-10.974,6.329-22.227,12.788-31.909
			c6.233-9.343,15.259-16.732,24.549-24.069c9.288-7.338,18.567-14.408,29.098-18.307c10.916-4.041,22.616-4.601,34.003-5.05
			c11.5-0.454,23.217-0.782,34.3,2.322c10.974,3.073,20.815,9.402,30.497,15.86C180.307,29.032,189.991,35.572,197.327,44.861z"/>
	</g>
	<g>
		<g>
			<path fill="#9D0E1C" d="M108.211,212.241c-29.815,0-57.5-13.402-75.958-36.771C16.24,155.199,9.08,129.903,12.093,104.246
				c3.012-25.658,15.836-48.608,36.11-64.62c17.245-13.623,37.952-20.824,59.881-20.824c29.816,0,57.501,13.402,75.958,36.771
				c16.013,20.271,23.173,45.567,20.16,71.226c-3.012,25.658-15.834,48.607-36.108,64.618
				C150.848,205.04,130.141,212.241,108.211,212.241z"/>
		</g>
		<g>
			<path fill="#AF0D21" d="M108.089,17.374v2.855c29.373,0,56.648,13.204,74.833,36.227c15.776,19.974,22.831,44.896,19.863,70.175
				c-2.968,25.28-15.602,47.89-35.575,63.665c-16.993,13.422-37.394,20.518-58.999,20.518c-29.375,0-56.652-13.204-74.838-36.227
				c-15.776-19.974-22.83-44.896-19.862-70.175s15.603-47.89,35.577-63.666c16.991-13.421,37.391-20.516,58.997-20.517
				L108.089,17.374 M108.084,17.374c-21.299,0.002-42.756,6.904-60.767,21.132C4.781,72.103-2.465,133.822,31.132,176.356
				c19.369,24.521,48.081,37.312,77.079,37.312c21.3,0,42.757-6.904,60.769-21.132c42.535-33.594,49.781-95.315,16.183-137.85
				C165.795,30.165,137.083,17.373,108.084,17.374L108.084,17.374z"/>
		</g>
	</g>
	<g>
		<path fill="#8B0D16" d="M43.971,77.538c-0.658,0.07-2.354,0.087-3.375,0.087c-2.423,0-3.687-0.917-3.687-3.219v-6.664
			c0-2.302,1.264-3.219,3.687-3.219c1.021,0,2.648,0.035,3.375,0.104c0.104,0.018,0.172,0.139,0.172,0.243v0.864
			c0,0.121-0.069,0.208-0.19,0.208h-3.341c-1.834,0-2.129,0.484-2.129,1.8v2.406h5.314c0.19,0,0.346,0.155,0.346,0.347v0.657
			c0,0.19-0.156,0.346-0.346,0.346h-5.314v2.908c0,1.315,0.294,1.799,2.129,1.799h3.341c0.121,0,0.19,0.087,0.19,0.209v0.882
			C44.144,77.399,44.075,77.521,43.971,77.538z"/>
		<path fill="#8B0D16" d="M52.214,77.625c-2.805,0-4.431-1.488-4.431-4.794v-7.857c0-0.174,0.138-0.329,0.329-0.329h0.934
			c0.173,0,0.329,0.139,0.329,0.329v7.857c0,2.232,0.693,3.444,2.839,3.444c2.145,0,2.838-1.194,2.838-3.444v-7.857
			c0-0.174,0.139-0.329,0.329-0.329h0.935c0.173,0,0.329,0.139,0.329,0.329v7.857C56.644,76.137,55.017,77.625,52.214,77.625z"/>
		<path fill="#8B0D16" d="M69.249,77.504h-1.108c-0.208,0-0.311,0-0.449-0.226l-3.099-5.157c-0.051,0-0.104,0-0.156,0
			c-0.103,0-0.189,0-0.294,0c-0.572,0-0.987-0.017-1.903-0.052v5.088c0,0.174-0.121,0.347-0.312,0.347h-0.935
			c-0.173,0-0.312-0.155-0.312-0.347V65.043c0-0.243,0.104-0.346,0.417-0.382c0.744-0.086,2.042-0.138,3.045-0.138
			c2.735,0,4.846,0.917,4.846,3.721v0.122c0,1.938-1.142,3.08-2.717,3.495l3.149,5.262c0.035,0.052,0.052,0.104,0.052,0.155
			C69.474,77.399,69.387,77.504,69.249,77.504z M67.432,68.244c0-1.73-1.125-2.302-3.289-2.302c-0.536,0-1.488,0-1.903,0.052v4.743
			c0.761,0.017,1.505,0.034,1.903,0.034c2.129,0,3.289-0.536,3.289-2.405V68.244z"/>
		<path fill="#8B0D16" d="M76.921,77.625c-2.718,0-4.69-1.592-4.69-5.435v-2.232c0-3.843,1.973-5.435,4.69-5.435
			c2.717,0,4.673,1.592,4.673,5.435v2.232C81.594,76.033,79.638,77.625,76.921,77.625z M80.001,69.958
			c0-2.908-1.177-4.016-3.08-4.016c-1.887,0-3.099,1.107-3.099,4.016v2.232c0,2.907,1.194,4.015,3.099,4.015
			c1.886,0,3.08-1.107,3.08-4.015V69.958z"/>
		<path fill="#8B0D16" d="M88.66,72.381c-0.554,0-1.281-0.053-1.73-0.087v4.863c0,0.174-0.121,0.347-0.312,0.347h-0.935
			c-0.173,0-0.312-0.155-0.312-0.347V65.095c0-0.242,0.156-0.397,0.416-0.434c0.744-0.086,1.869-0.138,2.873-0.138
			c2.803,0,4.846,0.97,4.846,3.756v0.225C93.506,71.394,91.463,72.381,88.66,72.381z M91.931,68.279
			c0-1.748-1.038-2.424-3.271-2.424c-0.536,0-1.315,0.035-1.73,0.07v5.07c0.397,0.018,1.281,0.069,1.73,0.069
			c2.371,0,3.271-0.762,3.271-2.562V68.279z"/>
		<path fill="#8B0D16" d="M104.76,77.504h-1.022c-0.155,0-0.259-0.121-0.294-0.26l-1.124-3.98h-4.483l-1.107,3.98
			c-0.035,0.139-0.173,0.26-0.312,0.26h-1.021c-0.173,0-0.294-0.121-0.294-0.276c0-0.035,0-0.087,0.018-0.122l3.202-11.267
			c0.294-1.056,1.108-1.315,1.765-1.315c0.64,0,1.454,0.242,1.748,1.298l3.202,11.284c0.018,0.035,0.018,0.087,0.018,0.122
			C105.054,77.383,104.95,77.504,104.76,77.504z M99.014,63.52h-0.675c-0.173,0-0.347-0.139-0.347-0.329v-1.401
			c0-0.173,0.173-0.347,0.347-0.347h0.675c0.173,0,0.346,0.174,0.346,0.347v1.401C99.36,63.381,99.187,63.52,99.014,63.52z
			 M100.415,66.202c-0.051-0.19-0.155-0.312-0.328-0.312c-0.19,0-0.294,0.121-0.347,0.312l-1.575,5.694h3.826L100.415,66.202z
			 M102.042,63.52h-0.675c-0.173,0-0.347-0.139-0.347-0.329v-1.401c0-0.173,0.173-0.347,0.347-0.347h0.675
			c0.173,0,0.346,0.174,0.346,0.347v1.401C102.389,63.381,102.215,63.52,102.042,63.52z"/>
		<path fill="#8B0D16" d="M109.732,77.504h-0.952c-0.173,0-0.312-0.155-0.312-0.347V64.974c0-0.174,0.121-0.329,0.312-0.329h0.952
			c0.173,0,0.311,0.139,0.311,0.329v12.184C110.043,77.331,109.922,77.504,109.732,77.504z"/>
		<path fill="#8B0D16" d="M117.332,77.625c-1.211,0-2.111-0.121-2.873-0.242c-0.294-0.052-0.33-0.121-0.33-0.312v-0.693
			c0-0.189,0.139-0.276,0.294-0.276c0.018,0,0.035,0,0.052,0c0.796,0.069,2.06,0.104,2.855,0.104c2.077,0,2.63-0.83,2.63-2.042
			c0-0.864-0.501-1.35-2.077-2.318l-1.678-1.021c-1.592-0.969-2.388-1.853-2.388-3.236c0-2.094,1.505-3.063,4.136-3.063
			c1.021,0,2.353,0.104,3.011,0.208c0.173,0.034,0.294,0.121,0.294,0.294v0.744c0,0.173-0.121,0.277-0.294,0.277
			c-0.018,0-0.018,0-0.034,0c-0.762-0.053-1.974-0.104-2.977-0.104c-1.783,0-2.545,0.381-2.545,1.645
			c0,0.813,0.572,1.298,1.887,2.095l1.592,0.951c2.008,1.194,2.717,2.146,2.717,3.53C121.607,75.824,120.742,77.625,117.332,77.625z
			"/>
		<path fill="#8B0D16" d="M132.341,77.399c-0.727,0.139-1.402,0.226-2.873,0.226c-2.129,0-4.568-1.143-4.568-5.348v-2.406
			c0-4.239,2.439-5.348,4.568-5.348c1.091,0,2.146,0.155,2.908,0.276c0.155,0.018,0.277,0.07,0.277,0.226v0.883
			c0,0.104-0.036,0.19-0.208,0.19c-0.017,0-0.035,0-0.051,0c-0.624-0.052-1.904-0.156-2.908-0.156c-1.696,0-3.011,0.986-3.011,3.929
			v2.406c0,2.907,1.315,3.928,3.011,3.928c0.986,0,2.233-0.085,2.855-0.138c0.018,0,0.052,0,0.069,0
			c0.191,0,0.277,0.087,0.277,0.276v0.71C132.688,77.262,132.531,77.365,132.341,77.399z"/>
		<path fill="#8B0D16" d="M144.756,77.504h-0.883c-0.19,0-0.346-0.155-0.346-0.347v-5.745h-5.919v5.745
			c0,0.191-0.156,0.347-0.347,0.347h-0.882c-0.189,0-0.346-0.155-0.346-0.347V64.991c0-0.191,0.157-0.347,0.346-0.347h0.882
			c0.191,0,0.347,0.155,0.347,0.347v5.019h5.919v-5.019c0-0.191,0.156-0.347,0.346-0.347h0.883c0.19,0,0.345,0.155,0.345,0.347
			v12.166C145.101,77.349,144.946,77.504,144.756,77.504z"/>
		<path fill="#8B0D16" d="M156.253,77.538c-0.658,0.07-2.354,0.087-3.375,0.087c-2.423,0-3.687-0.917-3.687-3.219v-6.664
			c0-2.302,1.264-3.219,3.687-3.219c1.021,0,2.648,0.035,3.375,0.104c0.103,0.018,0.172,0.139,0.172,0.243v0.864
			c0,0.121-0.069,0.208-0.189,0.208h-3.341c-1.834,0-2.129,0.484-2.129,1.8v2.406h5.314c0.19,0,0.345,0.155,0.345,0.347v0.657
			c0,0.19-0.155,0.346-0.345,0.346h-5.314v2.908c0,1.315,0.294,1.799,2.129,1.799h3.341c0.121,0,0.189,0.087,0.189,0.209v0.882
			C156.425,77.399,156.356,77.521,156.253,77.538z"/>
		<path fill="#8B0D16" d="M163.145,77.625c-1.211,0-2.111-0.121-2.872-0.242c-0.294-0.052-0.33-0.121-0.33-0.312v-0.693
			c0-0.189,0.139-0.276,0.294-0.276c0.018,0,0.036,0,0.052,0c0.797,0.069,2.06,0.104,2.855,0.104c2.077,0,2.631-0.83,2.631-2.042
			c0-0.864-0.502-1.35-2.077-2.318l-1.678-1.021c-1.593-0.969-2.389-1.853-2.389-3.236c0-2.094,1.505-3.063,4.137-3.063
			c1.021,0,2.353,0.104,3.011,0.208c0.173,0.034,0.294,0.121,0.294,0.294v0.744c0,0.173-0.121,0.277-0.294,0.277
			c-0.018,0-0.018,0-0.034,0c-0.761-0.053-1.973-0.104-2.977-0.104c-1.784,0-2.545,0.381-2.545,1.645
			c0,0.813,0.571,1.298,1.887,2.095l1.593,0.951c2.007,1.194,2.717,2.146,2.717,3.53C167.42,75.824,166.555,77.625,163.145,77.625z"
			/>
	</g>
	<g>
		<path fill="#8B0D16" d="M43.968,160.325c-0.451,0.068-1.748,0.155-3.375,0.155c-1.853,0-3.687-0.363-3.687-3.219v-9.415
			c0-0.191,0.156-0.347,0.346-0.347h0.882c0.191,0,0.346,0.155,0.346,0.347v9.415c0,1.315,0.294,1.799,2.129,1.799h3.341
			c0.121,0,0.19,0.087,0.19,0.209v0.813C44.141,160.187,44.071,160.308,43.968,160.325z"/>
		<path fill="#8B0D16" d="M50.878,160.48c-2.805,0-4.431-1.488-4.431-4.794v-7.857c0-0.174,0.138-0.329,0.329-0.329h0.935
			c0.173,0,0.328,0.139,0.328,0.329v7.857c0,2.232,0.693,3.444,2.839,3.444c2.146,0,2.838-1.194,2.838-3.444v-7.857
			c0-0.174,0.139-0.329,0.329-0.329h0.935c0.173,0,0.33,0.139,0.33,0.329v7.857C55.309,158.992,53.681,160.48,50.878,160.48z
			 M49.666,146.341h-0.675c-0.173,0-0.347-0.139-0.347-0.329v-1.401c0-0.173,0.173-0.347,0.347-0.347h0.675
			c0.173,0,0.346,0.174,0.346,0.347v1.401C50.012,146.202,49.839,146.341,49.666,146.341z M52.695,146.341H52.02
			c-0.173,0-0.346-0.139-0.346-0.329v-1.401c0-0.173,0.173-0.347,0.346-0.347h0.675c0.173,0,0.346,0.174,0.346,0.347v1.401
			C53.041,146.202,52.868,146.341,52.695,146.341z"/>
		<path fill="#8B0D16" d="M62.738,160.48c-1.142,0-2.164-0.053-2.821-0.155c-0.398-0.053-0.571-0.208-0.571-0.641v-11.527
			c0-0.397,0.19-0.604,0.554-0.641c0.571-0.068,1.627-0.138,2.752-0.138c2.751,0,5.071,0.728,5.071,3.34v0.277
			c0,1.281-0.675,2.268-1.852,2.718c1.194,0.415,1.921,1.47,1.921,2.803v0.295C67.792,159.719,65.438,160.48,62.738,160.48z
			 M66.148,150.719c0-1.661-1.385-2.008-3.496-2.008c-0.588,0-1.229,0.036-1.714,0.053v4.292h2.665c2.008,0,2.545-0.97,2.545-2.06
			V150.719z M66.217,156.517c0-1.142-0.572-2.197-2.614-2.197h-2.665v4.759c0.572,0.019,1.194,0.069,1.8,0.069
			c2.146,0,3.479-0.468,3.479-2.336V156.517z"/>
		<path fill="#8B0D16" d="M78.458,160.394c-0.658,0.07-2.354,0.087-3.375,0.087c-2.423,0-3.687-0.917-3.687-3.219v-6.664
			c0-2.302,1.264-3.219,3.687-3.219c1.021,0,2.648,0.035,3.375,0.104c0.103,0.018,0.172,0.139,0.172,0.243v0.864
			c0,0.121-0.069,0.208-0.189,0.208H75.1c-1.834,0-2.129,0.485-2.129,1.8v2.406h5.314c0.19,0,0.345,0.155,0.345,0.347v0.657
			c0,0.19-0.155,0.346-0.345,0.346h-5.314v2.908c0,1.315,0.294,1.799,2.129,1.799h3.341c0.121,0,0.189,0.087,0.189,0.209v0.882
			C78.63,160.255,78.561,160.377,78.458,160.394z"/>
		<path fill="#8B0D16" d="M89.452,160.255c-0.727,0.139-1.401,0.226-2.873,0.226c-2.129,0-4.568-1.143-4.568-5.348v-2.406
			c0-4.239,2.439-5.348,4.568-5.348c1.091,0,2.146,0.156,2.908,0.276c0.155,0.019,0.277,0.07,0.277,0.226v0.883
			c0,0.104-0.036,0.19-0.208,0.19c-0.017,0-0.035,0-0.051,0c-0.624-0.052-1.904-0.156-2.908-0.156c-1.696,0-3.011,0.986-3.011,3.929
			v2.406c0,2.907,1.315,3.928,3.011,3.928c0.987,0,2.233-0.085,2.855-0.138c0.018,0,0.052,0,0.069,0
			c0.191,0,0.278,0.087,0.278,0.276v0.711C89.798,160.117,89.642,160.221,89.452,160.255z"/>
		<path fill="#8B0D16" d="M101.329,160.359h-1.35c-0.156,0-0.277-0.052-0.381-0.173l-4.881-5.937v5.763
			c0,0.174-0.121,0.347-0.311,0.347h-0.952c-0.173,0-0.312-0.155-0.312-0.347v-12.184c0-0.174,0.139-0.329,0.33-0.329h0.917
			c0.173,0,0.329,0.139,0.329,0.329v5.59l4.984-5.764c0.104-0.103,0.173-0.155,0.346-0.155h1.247c0.173,0,0.242,0.087,0.242,0.19
			c0,0.052-0.017,0.122-0.069,0.173l-5.209,5.885l5.209,6.23c0.052,0.053,0.086,0.139,0.086,0.208
			C101.554,160.272,101.485,160.359,101.329,160.359z"/>
	</g>
	<g>
		<path fill="#8B0D16" d="M55.493,109.456h-3.491c-0.387,0-0.705-0.317-0.705-0.705V97.962H41.284v10.789
			c0,0.388-0.318,0.705-0.705,0.705h-3.491c-0.388,0-0.706-0.317-0.706-0.705V83.929c0-0.388,0.318-0.67,0.706-0.67h3.491
			c0.387,0,0.705,0.282,0.705,0.67v9.731h10.013v-9.731c0-0.388,0.318-0.67,0.705-0.67h3.491c0.388,0,0.705,0.282,0.705,0.67v24.822
			C56.198,109.139,55.881,109.456,55.493,109.456z"/>
		<path fill="#8B0D16" d="M83.133,109.456h-3.738c-0.317,0-0.599-0.282-0.67-0.599l-1.621-6.7h-8.111l-1.621,6.7
			c-0.071,0.316-0.353,0.599-0.67,0.599h-3.738c-0.352,0-0.634-0.246-0.634-0.599c0-0.035,0.036-0.106,0.036-0.177l5.782-22.108
			c0.846-3.278,3.385-3.596,4.901-3.596c1.516,0,4.055,0.317,4.901,3.596l5.782,22.108c0,0.07,0.036,0.142,0.036,0.177
			C83.768,109.21,83.486,109.456,83.133,109.456z M73.613,87.666c-0.106-0.424-0.211-0.564-0.564-0.564
			c-0.353,0-0.458,0.141-0.564,0.564l-2.539,10.472h6.207L73.613,87.666z"/>
		<path fill="#8B0D16" d="M108.307,109.456h-3.561c-0.847,0-1.587,0-2.151-1.269l-7.828-17.172
			c-0.106-0.211-0.211-0.282-0.317-0.282c-0.105,0-0.176,0.071-0.176,0.282v17.735c0,0.388-0.282,0.705-0.67,0.705h-2.997
			c-0.388,0-0.706-0.317-0.706-0.705V84.669c0-0.776,0.634-1.41,1.411-1.41h3.808c0.741,0,1.128,0.211,1.551,1.128l8.216,18.124
			c0.071,0.176,0.176,0.282,0.282,0.282c0.07,0,0.176-0.106,0.176-0.317V83.929c0-0.388,0.282-0.67,0.67-0.67h3.032
			c0.389,0,0.67,0.282,0.67,0.67v24.117C109.716,108.822,109.082,109.456,108.307,109.456z"/>
		<path fill="#8B0D16" d="M124.417,109.739c-2.644,0-4.548-0.247-6.24-0.635c-0.354-0.071-0.67-0.318-0.67-0.705v-2.539
			c0-0.388,0.316-0.67,0.67-0.67c0.035,0,0.035,0,0.07,0c1.411,0.176,4.937,0.352,6.241,0.352c3.138,0,4.09-1.128,4.09-3.173
			c0-1.375-0.67-2.08-2.997-3.455l-4.654-2.786c-3.279-1.938-4.161-3.983-4.161-6.452c0-3.878,2.256-6.699,8.815-6.699
			c2.327,0,5.571,0.353,6.77,0.635c0.353,0.07,0.635,0.317,0.635,0.67v2.609c0,0.352-0.247,0.634-0.599,0.634
			c-0.036,0-0.036,0-0.071,0c-2.328-0.211-4.654-0.352-6.946-0.352c-2.61,0-3.703,0.917-3.703,2.503c0,1.164,0.6,1.868,2.891,3.139
			l4.232,2.361c3.878,2.151,4.901,4.408,4.901,7.193C133.69,105.931,131.469,109.739,124.417,109.739z"/>
		<path fill="#8B0D16" d="M155.583,109.245c-1.129,0.176-2.503,0.494-6.7,0.494c-4.583,0-8.145-1.235-8.145-7.229V90.204
			c0-5.993,3.562-7.228,8.145-7.228c4.197,0,5.571,0.317,6.7,0.493c0.528,0.071,0.704,0.247,0.704,0.741v2.256
			c0,0.388-0.316,0.706-0.704,0.706h-7.194c-2.045,0-2.785,0.705-2.785,3.031v3.809h9.555c0.388,0,0.705,0.317,0.705,0.705v2.539
			c0,0.388-0.317,0.705-0.705,0.705h-9.555v4.549c0,2.326,0.74,3.031,2.785,3.031h7.194c0.388,0,0.704,0.318,0.704,0.706v2.256
			C156.288,108.998,156.112,109.174,155.583,109.245z"/>
	</g>
	<g>
		<path fill="#8B0D16" d="M58.417,141.924h-3.562c-0.317,0-0.564-0.353-0.564-0.705v-16.396c0-0.247-0.035-0.354-0.106-0.354
			c-0.035,0-0.105,0.106-0.176,0.212l-3.385,6.735c-0.211,0.388-0.67,0.599-1.128,0.599h-3.561c-0.458,0-0.917-0.211-1.128-0.599
			l-3.42-6.735c-0.071-0.105-0.141-0.212-0.176-0.212c-0.071,0-0.106,0.106-0.106,0.354v16.396c0,0.353-0.247,0.705-0.563,0.705
			h-3.561c-0.318,0-0.6-0.176-0.6-0.529v-24.258c0-0.776,0.634-1.411,1.411-1.411h2.891c0.564,0,1.059,0.354,1.304,0.846
			l5.325,10.791c0.176,0.316,0.247,0.492,0.387,0.492s0.212-0.176,0.388-0.492l5.325-10.791c0.247-0.492,0.741-0.846,1.305-0.846
			h2.891c0.776,0,1.411,0.635,1.411,1.411v24.258C59.016,141.748,58.734,141.924,58.417,141.924z"/>
		<path fill="#8B0D16" d="M76.642,142.206c-5.677,0-9.696-2.468-9.696-9.979v-15.832c0-0.388,0.317-0.67,0.705-0.67h3.49
			c0.389,0,0.706,0.282,0.706,0.67v15.832c0,4.02,0.987,5.924,4.795,5.924s4.795-1.904,4.795-5.924v-15.832
			c0-0.388,0.317-0.67,0.706-0.67h3.49c0.388,0,0.705,0.282,0.705,0.67v15.832C86.338,139.738,82.319,142.206,76.642,142.206z"/>
		<path fill="#8B0D16" d="M100.863,142.206c-2.644,0-4.549-0.247-6.241-0.635c-0.353-0.07-0.67-0.317-0.67-0.705v-2.539
			c0-0.388,0.317-0.67,0.67-0.67c0.036,0,0.036,0,0.07,0c1.411,0.176,4.938,0.353,6.242,0.353c3.138,0,4.09-1.129,4.09-3.174
			c0-1.374-0.67-2.079-2.998-3.455l-4.654-2.785c-3.28-1.939-4.161-3.984-4.161-6.452c0-3.879,2.257-6.7,8.815-6.7
			c2.328,0,5.571,0.354,6.77,0.636c0.352,0.069,0.635,0.316,0.635,0.67v2.608c0,0.353-0.247,0.635-0.599,0.635
			c-0.036,0-0.036,0-0.071,0c-2.328-0.212-4.654-0.353-6.946-0.353c-2.61,0-3.703,0.917-3.703,2.504c0,1.162,0.6,1.868,2.891,3.138
			l4.232,2.362c3.878,2.151,4.901,4.407,4.901,7.192C110.136,138.398,107.915,142.206,100.863,142.206z"/>
		<path fill="#8B0D16" d="M132.03,141.712c-1.129,0.177-2.504,0.494-6.7,0.494c-4.583,0-8.145-1.234-8.145-7.229v-12.306
			c0-5.994,3.562-7.229,8.145-7.229c4.196,0,5.571,0.317,6.7,0.494c0.528,0.07,0.704,0.246,0.704,0.74v2.257
			c0,0.388-0.317,0.705-0.704,0.705h-7.194c-2.045,0-2.785,0.705-2.785,3.032v3.808h9.555c0.389,0,0.706,0.317,0.706,0.705v2.539
			c0,0.388-0.317,0.705-0.706,0.705h-9.555v4.549c0,2.327,0.74,3.032,2.785,3.032h7.194c0.387,0,0.704,0.317,0.704,0.705v2.257
			C132.734,141.465,132.558,141.642,132.03,141.712z"/>
		<path fill="#8B0D16" d="M149.833,142.206c-5.677,0-9.696-2.468-9.696-9.979v-15.832c0-0.388,0.318-0.67,0.706-0.67h3.49
			c0.388,0,0.705,0.282,0.705,0.67v15.832c0,4.02,0.988,5.924,4.795,5.924c3.808,0,4.796-1.904,4.796-5.924v-15.832
			c0-0.388,0.316-0.67,0.705-0.67h3.49c0.389,0,0.706,0.282,0.706,0.67v15.832C159.529,139.738,155.51,142.206,149.833,142.206z"/>
		<path fill="#8B0D16" d="M189.497,141.924h-3.562c-0.316,0-0.563-0.353-0.563-0.705v-16.396c0-0.247-0.036-0.354-0.106-0.354
			c-0.034,0-0.105,0.106-0.176,0.212l-3.385,6.735c-0.211,0.388-0.67,0.599-1.128,0.599h-3.561c-0.458,0-0.917-0.211-1.128-0.599
			l-3.42-6.735c-0.071-0.105-0.141-0.212-0.176-0.212c-0.071,0-0.106,0.106-0.106,0.354v16.396c0,0.353-0.247,0.705-0.564,0.705
			h-3.561c-0.318,0-0.6-0.176-0.6-0.529v-24.258c0-0.776,0.634-1.411,1.411-1.411h2.891c0.564,0,1.058,0.354,1.304,0.846
			l5.325,10.791c0.176,0.316,0.247,0.492,0.388,0.492c0.142,0,0.211-0.176,0.388-0.492l5.325-10.791
			c0.247-0.492,0.741-0.846,1.304-0.846h2.891c0.776,0,1.411,0.635,1.411,1.411v24.258
			C190.096,141.748,189.813,141.924,189.497,141.924z"/>
	</g>
	<g>
		<path fill="#FFFFFF" d="M42.964,76.531c-0.658,0.069-2.354,0.086-3.375,0.086c-2.423,0-3.687-0.917-3.687-3.219v-6.663
			c0-2.302,1.264-3.219,3.687-3.219c1.021,0,2.648,0.034,3.375,0.104c0.104,0.018,0.172,0.139,0.172,0.242v0.865
			c0,0.121-0.069,0.207-0.19,0.207h-3.341c-1.834,0-2.129,0.485-2.129,1.801v2.406h5.314c0.19,0,0.346,0.155,0.346,0.346v0.657
			c0,0.191-0.156,0.347-0.346,0.347h-5.314v2.907c0,1.315,0.294,1.8,2.129,1.8h3.341c0.121,0,0.19,0.086,0.19,0.208v0.883
			C43.136,76.393,43.067,76.514,42.964,76.531z"/>
		<path fill="#FFFFFF" d="M51.207,76.617c-2.805,0-4.431-1.488-4.431-4.793v-7.858c0-0.173,0.138-0.328,0.329-0.328h0.934
			c0.173,0,0.329,0.139,0.329,0.328v7.858c0,2.231,0.693,3.443,2.839,3.443c2.145,0,2.838-1.194,2.838-3.443v-7.858
			c0-0.173,0.139-0.328,0.329-0.328h0.935c0.173,0,0.329,0.139,0.329,0.328v7.858C55.637,75.129,54.01,76.617,51.207,76.617z"/>
		<path fill="#FFFFFF" d="M68.241,76.496h-1.108c-0.208,0-0.311,0-0.449-0.225l-3.099-5.158c-0.051,0-0.104,0-0.156,0
			c-0.103,0-0.189,0-0.294,0c-0.572,0-0.987-0.017-1.903-0.051v5.088c0,0.173-0.121,0.346-0.312,0.346h-0.935
			c-0.173,0-0.312-0.155-0.312-0.346V64.036c0-0.243,0.104-0.347,0.416-0.382c0.744-0.087,2.042-0.138,3.045-0.138
			c2.735,0,4.846,0.917,4.846,3.72v0.122c0,1.938-1.142,3.08-2.717,3.495l3.15,5.263c0.034,0.052,0.052,0.104,0.052,0.155
			C68.466,76.393,68.38,76.496,68.241,76.496z M66.424,67.236c0-1.729-1.125-2.302-3.289-2.302c-0.536,0-1.488,0-1.903,0.053v4.742
			c0.761,0.017,1.505,0.034,1.903,0.034c2.129,0,3.289-0.536,3.289-2.405V67.236z"/>
		<path fill="#FFFFFF" d="M75.914,76.617c-2.718,0-4.69-1.592-4.69-5.434V68.95c0-3.842,1.973-5.434,4.69-5.434
			c2.717,0,4.673,1.592,4.673,5.434v2.233C80.587,75.025,78.631,76.617,75.914,76.617z M78.994,68.95
			c0-2.907-1.177-4.016-3.08-4.016c-1.887,0-3.099,1.108-3.099,4.016v2.233c0,2.906,1.194,4.015,3.099,4.015
			c1.886,0,3.08-1.108,3.08-4.015V68.95z"/>
		<path fill="#FFFFFF" d="M87.653,71.373c-0.554,0-1.281-0.052-1.73-0.086v4.863c0,0.173-0.121,0.346-0.312,0.346h-0.935
			c-0.173,0-0.312-0.155-0.312-0.346V64.087c0-0.242,0.156-0.397,0.416-0.433c0.744-0.087,1.869-0.138,2.873-0.138
			c2.803,0,4.846,0.969,4.846,3.756v0.224C92.499,70.387,90.456,71.373,87.653,71.373z M90.923,67.272
			c0-1.748-1.038-2.424-3.271-2.424c-0.536,0-1.315,0.035-1.73,0.069v5.071c0.397,0.017,1.281,0.068,1.73,0.068
			c2.371,0,3.271-0.761,3.271-2.562V67.272z"/>
		<path fill="#FFFFFF" d="M103.753,76.496h-1.022c-0.155,0-0.259-0.121-0.294-0.26l-1.125-3.979H96.83l-1.107,3.979
			c-0.035,0.139-0.173,0.26-0.312,0.26h-1.021c-0.173,0-0.294-0.121-0.294-0.276c0-0.035,0-0.086,0.018-0.122l3.202-11.266
			c0.294-1.056,1.108-1.315,1.765-1.315c0.64,0,1.454,0.242,1.748,1.297l3.202,11.284c0.018,0.036,0.018,0.087,0.018,0.122
			C104.047,76.375,103.943,76.496,103.753,76.496z M98.006,62.512h-0.675c-0.173,0-0.347-0.139-0.347-0.328v-1.402
			c0-0.173,0.173-0.346,0.347-0.346h0.675c0.173,0,0.346,0.173,0.346,0.346v1.402C98.353,62.373,98.179,62.512,98.006,62.512z
			 M99.408,65.194c-0.051-0.189-0.155-0.311-0.328-0.311c-0.19,0-0.294,0.121-0.347,0.311l-1.575,5.695h3.826L99.408,65.194z
			 M101.035,62.512h-0.675c-0.173,0-0.347-0.139-0.347-0.328v-1.402c0-0.173,0.173-0.346,0.347-0.346h0.675
			c0.173,0,0.346,0.173,0.346,0.346v1.402C101.381,62.373,101.208,62.512,101.035,62.512z"/>
		<path fill="#FFFFFF" d="M108.725,76.496h-0.952c-0.173,0-0.312-0.155-0.312-0.346V63.966c0-0.173,0.121-0.328,0.312-0.328h0.952
			c0.173,0,0.311,0.139,0.311,0.328V76.15C109.036,76.323,108.915,76.496,108.725,76.496z"/>
		<path fill="#FFFFFF" d="M116.325,76.617c-1.211,0-2.111-0.121-2.873-0.242c-0.294-0.052-0.33-0.12-0.33-0.312v-0.692
			c0-0.189,0.139-0.276,0.294-0.276c0.018,0,0.035,0,0.052,0c0.796,0.068,2.06,0.104,2.855,0.104c2.077,0,2.63-0.83,2.63-2.042
			c0-0.865-0.501-1.351-2.077-2.319l-1.678-1.021c-1.592-0.97-2.388-1.853-2.388-3.236c0-2.095,1.505-3.063,4.136-3.063
			c1.021,0,2.353,0.104,3.011,0.207c0.173,0.035,0.294,0.121,0.294,0.295v0.743c0,0.173-0.121,0.277-0.294,0.277
			c-0.018,0-0.018,0-0.034,0c-0.762-0.052-1.974-0.104-2.977-0.104c-1.783,0-2.544,0.381-2.544,1.646
			c0,0.813,0.571,1.297,1.887,2.094l1.592,0.951c2.008,1.194,2.717,2.146,2.717,3.531C120.6,74.817,119.734,76.617,116.325,76.617z"
			/>
		<path fill="#FFFFFF" d="M131.334,76.393c-0.727,0.139-1.402,0.225-2.873,0.225c-2.129,0-4.568-1.142-4.568-5.348v-2.405
			c0-4.24,2.439-5.348,4.568-5.348c1.091,0,2.146,0.155,2.908,0.276c0.155,0.018,0.277,0.069,0.277,0.226V64.9
			c0,0.104-0.036,0.191-0.208,0.191c-0.017,0-0.035,0-0.051,0c-0.624-0.053-1.904-0.157-2.908-0.157
			c-1.696,0-3.011,0.987-3.011,3.93v2.405c0,2.907,1.315,3.929,3.011,3.929c0.987,0,2.233-0.086,2.855-0.138
			c0.018,0,0.052,0,0.069,0c0.191,0,0.277,0.086,0.277,0.276v0.71C131.68,76.255,131.524,76.357,131.334,76.393z"/>
		<path fill="#FFFFFF" d="M143.749,76.496h-0.883c-0.19,0-0.346-0.155-0.346-0.346v-5.746H136.6v5.746
			c0,0.19-0.156,0.346-0.347,0.346h-0.882c-0.19,0-0.346-0.155-0.346-0.346V63.983c0-0.19,0.156-0.346,0.346-0.346h0.882
			c0.191,0,0.347,0.155,0.347,0.346v5.02h5.919v-5.02c0-0.19,0.156-0.346,0.346-0.346h0.883c0.19,0,0.345,0.155,0.345,0.346V76.15
			C144.094,76.341,143.938,76.496,143.749,76.496z"/>
		<path fill="#FFFFFF" d="M155.246,76.531c-0.658,0.069-2.354,0.086-3.375,0.086c-2.423,0-3.687-0.917-3.687-3.219v-6.663
			c0-2.302,1.264-3.219,3.687-3.219c1.021,0,2.648,0.034,3.375,0.104c0.103,0.018,0.172,0.139,0.172,0.242v0.865
			c0,0.121-0.069,0.207-0.19,0.207h-3.341c-1.834,0-2.129,0.485-2.129,1.801v2.406h5.314c0.19,0,0.346,0.155,0.346,0.346v0.657
			c0,0.191-0.156,0.347-0.346,0.347h-5.314v2.907c0,1.315,0.294,1.8,2.129,1.8h3.341c0.121,0,0.19,0.086,0.19,0.208v0.883
			C155.418,76.393,155.349,76.514,155.246,76.531z"/>
		<path fill="#FFFFFF" d="M162.138,76.617c-1.211,0-2.111-0.121-2.872-0.242c-0.294-0.052-0.33-0.12-0.33-0.312v-0.692
			c0-0.189,0.139-0.276,0.294-0.276c0.018,0,0.036,0,0.052,0c0.797,0.068,2.06,0.104,2.855,0.104c2.077,0,2.631-0.83,2.631-2.042
			c0-0.865-0.502-1.351-2.077-2.319l-1.678-1.021c-1.593-0.97-2.389-1.853-2.389-3.236c0-2.095,1.505-3.063,4.137-3.063
			c1.021,0,2.353,0.104,3.011,0.207c0.173,0.035,0.294,0.121,0.294,0.295v0.743c0,0.173-0.121,0.277-0.294,0.277
			c-0.018,0-0.018,0-0.035,0c-0.761-0.052-1.973-0.104-2.977-0.104c-1.784,0-2.545,0.381-2.545,1.646
			c0,0.813,0.571,1.297,1.887,2.094l1.593,0.951c2.007,1.194,2.717,2.146,2.717,3.531C166.413,74.817,165.547,76.617,162.138,76.617
			z"/>
	</g>
	<g>
		<path fill="#FFFFFF" d="M42.961,159.317c-0.451,0.069-1.748,0.155-3.375,0.155c-1.853,0-3.687-0.362-3.687-3.219v-9.415
			c0-0.19,0.156-0.346,0.346-0.346h0.882c0.191,0,0.346,0.155,0.346,0.346v9.415c0,1.315,0.294,1.8,2.129,1.8h3.341
			c0.121,0,0.191,0.086,0.191,0.208v0.813C43.134,159.179,43.064,159.3,42.961,159.317z"/>
		<path fill="#FFFFFF" d="M49.871,159.473c-2.805,0-4.431-1.488-4.431-4.793v-7.858c0-0.173,0.138-0.328,0.329-0.328h0.935
			c0.173,0,0.328,0.139,0.328,0.328v7.858c0,2.231,0.693,3.443,2.839,3.443c2.146,0,2.838-1.194,2.838-3.443v-7.858
			c0-0.173,0.139-0.328,0.329-0.328h0.935c0.173,0,0.33,0.139,0.33,0.328v7.858C54.301,157.984,52.674,159.473,49.871,159.473z
			 M48.659,145.333h-0.675c-0.173,0-0.347-0.139-0.347-0.328v-1.402c0-0.173,0.173-0.346,0.347-0.346h0.675
			c0.173,0,0.346,0.173,0.346,0.346v1.402C49.005,145.194,48.832,145.333,48.659,145.333z M51.688,145.333h-0.675
			c-0.173,0-0.346-0.139-0.346-0.328v-1.402c0-0.173,0.173-0.346,0.346-0.346h0.675c0.173,0,0.346,0.173,0.346,0.346v1.402
			C52.034,145.194,51.86,145.333,51.688,145.333z"/>
		<path fill="#FFFFFF" d="M61.731,159.473c-1.142,0-2.164-0.052-2.821-0.155c-0.398-0.052-0.571-0.207-0.571-0.641V147.15
			c0-0.397,0.19-0.605,0.554-0.641c0.571-0.069,1.627-0.138,2.752-0.138c2.751,0,5.071,0.727,5.071,3.34v0.277
			c0,1.28-0.675,2.268-1.852,2.717c1.194,0.415,1.921,1.471,1.921,2.804v0.294C66.784,158.712,64.43,159.473,61.731,159.473z
			 M65.141,149.712c0-1.662-1.385-2.008-3.496-2.008c-0.588,0-1.229,0.035-1.714,0.052v4.292h2.665c2.008,0,2.545-0.969,2.545-2.059
			V149.712z M65.209,155.51c0-1.143-0.572-2.197-2.614-2.197h-2.665v4.759c0.572,0.018,1.194,0.068,1.8,0.068
			c2.146,0,3.479-0.467,3.479-2.336V155.51z"/>
		<path fill="#FFFFFF" d="M77.451,159.387c-0.658,0.069-2.354,0.086-3.375,0.086c-2.423,0-3.687-0.916-3.687-3.219v-6.663
			c0-2.302,1.264-3.219,3.687-3.219c1.021,0,2.648,0.034,3.375,0.104c0.103,0.018,0.172,0.139,0.172,0.243v0.864
			c0,0.121-0.069,0.207-0.189,0.207h-3.341c-1.834,0-2.129,0.485-2.129,1.801v2.406h5.314c0.19,0,0.345,0.155,0.345,0.346V153
			c0,0.191-0.155,0.347-0.345,0.347h-5.314v2.907c0,1.315,0.294,1.8,2.129,1.8h3.341c0.121,0,0.189,0.086,0.189,0.208v0.883
			C77.623,159.248,77.554,159.37,77.451,159.387z"/>
		<path fill="#FFFFFF" d="M88.444,159.248c-0.727,0.139-1.401,0.225-2.873,0.225c-2.129,0-4.568-1.142-4.568-5.347v-2.406
			c0-4.24,2.439-5.348,4.568-5.348c1.091,0,2.146,0.155,2.908,0.276c0.155,0.018,0.277,0.07,0.277,0.226v0.882
			c0,0.104-0.035,0.191-0.208,0.191c-0.017,0-0.035,0-0.051,0c-0.624-0.053-1.904-0.157-2.908-0.157
			c-1.696,0-3.011,0.987-3.011,3.93v2.406c0,2.906,1.315,3.928,3.011,3.928c0.987,0,2.233-0.086,2.855-0.138
			c0.018,0,0.052,0,0.069,0c0.191,0,0.278,0.086,0.278,0.276v0.71C88.791,159.11,88.634,159.213,88.444,159.248z"/>
		<path fill="#FFFFFF" d="M100.322,159.352h-1.35c-0.156,0-0.277-0.052-0.381-0.173l-4.881-5.937v5.764
			c0,0.173-0.121,0.346-0.311,0.346h-0.952c-0.173,0-0.312-0.155-0.312-0.346v-12.185c0-0.173,0.139-0.328,0.33-0.328h0.917
			c0.173,0,0.329,0.139,0.329,0.328v5.591l4.984-5.764c0.104-0.104,0.173-0.155,0.346-0.155h1.247c0.173,0,0.242,0.086,0.242,0.189
			c0,0.053-0.017,0.122-0.069,0.174l-5.209,5.884l5.209,6.231c0.052,0.052,0.086,0.139,0.086,0.207
			C100.547,159.266,100.478,159.352,100.322,159.352z"/>
	</g>
	<g>
		<path fill="#FFFFFF" d="M54.486,108.449h-3.491c-0.387,0-0.705-0.317-0.705-0.705v-10.79H40.276v10.79
			c0,0.388-0.318,0.705-0.705,0.705H36.08c-0.388,0-0.706-0.317-0.706-0.705V82.921c0-0.388,0.318-0.67,0.706-0.67h3.491
			c0.387,0,0.705,0.282,0.705,0.67v9.731H50.29v-9.731c0-0.388,0.318-0.67,0.705-0.67h3.491c0.388,0,0.705,0.282,0.705,0.67v24.823
			C55.19,108.132,54.874,108.449,54.486,108.449z"/>
		<path fill="#FFFFFF" d="M82.126,108.449h-3.738c-0.317,0-0.599-0.282-0.67-0.6l-1.621-6.699h-8.111l-1.621,6.699
			c-0.071,0.317-0.353,0.6-0.67,0.6h-3.738c-0.352,0-0.634-0.247-0.634-0.6c0-0.035,0.036-0.105,0.036-0.177l5.782-22.107
			c0.846-3.279,3.385-3.597,4.901-3.597c1.516,0,4.055,0.317,4.901,3.597l5.782,22.107c0,0.071,0.036,0.142,0.036,0.177
			C82.761,108.202,82.479,108.449,82.126,108.449z M72.606,86.659c-0.106-0.424-0.211-0.564-0.564-0.564
			c-0.353,0-0.458,0.141-0.564,0.564l-2.539,10.472h6.207L72.606,86.659z"/>
		<path fill="#FFFFFF" d="M107.299,108.449h-3.561c-0.847,0-1.587,0-2.151-1.269l-7.828-17.172
			c-0.106-0.212-0.211-0.282-0.317-0.282c-0.105,0-0.176,0.07-0.176,0.282v17.735c0,0.388-0.282,0.705-0.67,0.705h-2.997
			c-0.388,0-0.706-0.317-0.706-0.705V83.662c0-0.776,0.635-1.411,1.411-1.411h3.808c0.741,0,1.128,0.212,1.551,1.129l8.216,18.123
			c0.071,0.177,0.176,0.282,0.282,0.282c0.07,0,0.176-0.105,0.176-0.317V82.921c0-0.388,0.282-0.67,0.67-0.67h3.032
			c0.389,0,0.67,0.282,0.67,0.67v24.117C108.709,107.814,108.074,108.449,107.299,108.449z"/>
		<path fill="#FFFFFF" d="M123.409,108.731c-2.644,0-4.548-0.247-6.24-0.635c-0.354-0.07-0.67-0.317-0.67-0.705v-2.539
			c0-0.388,0.316-0.67,0.67-0.67c0.035,0,0.035,0,0.07,0c1.411,0.177,4.937,0.353,6.241,0.353c3.138,0,4.09-1.129,4.09-3.174
			c0-1.375-0.67-2.079-2.997-3.454l-4.654-2.786c-3.28-1.939-4.161-3.984-4.161-6.452c0-3.879,2.256-6.7,8.815-6.7
			c2.327,0,5.571,0.354,6.77,0.636c0.353,0.069,0.635,0.316,0.635,0.67v2.608c0,0.353-0.247,0.635-0.599,0.635
			c-0.036,0-0.036,0-0.071,0c-2.328-0.212-4.654-0.353-6.946-0.353c-2.61,0-3.703,0.917-3.703,2.504c0,1.164,0.6,1.868,2.892,3.138
			l4.231,2.362c3.878,2.151,4.901,4.408,4.901,7.192C132.683,104.924,130.461,108.731,123.409,108.731z"/>
		<path fill="#FFFFFF" d="M154.576,108.237c-1.129,0.177-2.503,0.494-6.7,0.494c-4.583,0-8.145-1.234-8.145-7.229V89.197
			c0-5.994,3.562-7.229,8.145-7.229c4.197,0,5.571,0.317,6.7,0.494c0.528,0.07,0.704,0.247,0.704,0.74v2.257
			c0,0.388-0.316,0.705-0.704,0.705h-7.194c-2.045,0-2.785,0.705-2.785,3.032v3.808h9.555c0.388,0,0.705,0.317,0.705,0.705v2.539
			c0,0.388-0.317,0.705-0.705,0.705h-9.555v4.549c0,2.327,0.74,3.032,2.785,3.032h7.194c0.388,0,0.704,0.317,0.704,0.705v2.257
			C155.28,107.991,155.104,108.167,154.576,108.237z"/>
	</g>
	<g>
		<path fill="#FFFFFF" d="M57.41,140.916h-3.562c-0.317,0-0.564-0.352-0.564-0.705v-16.396c0-0.247-0.035-0.353-0.106-0.353
			c-0.035,0-0.105,0.105-0.176,0.211l-3.385,6.735c-0.211,0.388-0.67,0.6-1.128,0.6h-3.561c-0.458,0-0.917-0.212-1.128-0.6
			l-3.42-6.735c-0.071-0.105-0.141-0.211-0.176-0.211c-0.071,0-0.106,0.105-0.106,0.353v16.396c0,0.354-0.247,0.705-0.563,0.705
			h-3.561c-0.318,0-0.6-0.176-0.6-0.529v-24.258c0-0.776,0.635-1.41,1.411-1.41h2.891c0.564,0,1.059,0.353,1.304,0.846l5.325,10.79
			c0.176,0.316,0.247,0.493,0.387,0.493s0.212-0.177,0.388-0.493l5.325-10.79c0.247-0.493,0.741-0.846,1.305-0.846h2.891
			c0.776,0,1.411,0.634,1.411,1.41v24.258C58.009,140.74,57.727,140.916,57.41,140.916z"/>
		<path fill="#FFFFFF" d="M75.635,141.198c-5.677,0-9.696-2.468-9.696-9.979v-15.831c0-0.388,0.317-0.67,0.705-0.67h3.49
			c0.389,0,0.706,0.282,0.706,0.67v15.831c0,4.02,0.987,5.924,4.795,5.924s4.795-1.904,4.795-5.924v-15.831
			c0-0.388,0.317-0.67,0.706-0.67h3.49c0.388,0,0.705,0.282,0.705,0.67v15.831C85.331,138.73,81.312,141.198,75.635,141.198z"/>
		<path fill="#FFFFFF" d="M99.855,141.198c-2.644,0-4.549-0.246-6.241-0.634c-0.353-0.071-0.67-0.318-0.67-0.705v-2.539
			c0-0.388,0.317-0.67,0.67-0.67c0.036,0,0.036,0,0.07,0c1.411,0.176,4.938,0.352,6.242,0.352c3.138,0,4.09-1.128,4.09-3.173
			c0-1.375-0.67-2.08-2.998-3.455l-4.654-2.786c-3.28-1.938-4.161-3.983-4.161-6.452c0-3.879,2.257-6.7,8.815-6.7
			c2.328,0,5.571,0.354,6.77,0.636c0.352,0.07,0.635,0.317,0.635,0.67v2.609c0,0.352-0.247,0.634-0.599,0.634
			c-0.036,0-0.036,0-0.071,0c-2.328-0.211-4.654-0.352-6.946-0.352c-2.61,0-3.703,0.916-3.703,2.503c0,1.163,0.6,1.868,2.891,3.139
			l4.232,2.361c3.878,2.151,4.901,4.408,4.901,7.193C109.129,137.391,106.908,141.198,99.855,141.198z"/>
		<path fill="#FFFFFF" d="M131.022,140.705c-1.129,0.176-2.504,0.493-6.7,0.493c-4.583,0-8.145-1.234-8.145-7.228v-12.307
			c0-5.993,3.562-7.229,8.145-7.229c4.196,0,5.571,0.318,6.7,0.494c0.528,0.071,0.704,0.247,0.704,0.741v2.256
			c0,0.388-0.317,0.706-0.704,0.706h-7.194c-2.045,0-2.785,0.705-2.785,3.031v3.809h9.555c0.389,0,0.706,0.317,0.706,0.705v2.539
			c0,0.388-0.317,0.705-0.706,0.705h-9.555v4.549c0,2.326,0.74,3.031,2.785,3.031h7.194c0.387,0,0.704,0.318,0.704,0.706v2.256
			C131.727,140.458,131.55,140.634,131.022,140.705z"/>
		<path fill="#FFFFFF" d="M148.825,141.198c-5.677,0-9.696-2.468-9.696-9.979v-15.831c0-0.388,0.318-0.67,0.706-0.67h3.49
			c0.388,0,0.705,0.282,0.705,0.67v15.831c0,4.02,0.988,5.924,4.795,5.924c3.808,0,4.796-1.904,4.796-5.924v-15.831
			c0-0.388,0.316-0.67,0.705-0.67h3.49c0.389,0,0.706,0.282,0.706,0.67v15.831C158.522,138.73,154.502,141.198,148.825,141.198z"/>
		<path fill="#FFFFFF" d="M188.489,140.916h-3.562c-0.316,0-0.563-0.352-0.563-0.705v-16.396c0-0.247-0.036-0.353-0.106-0.353
			c-0.034,0-0.105,0.105-0.176,0.211l-3.385,6.735c-0.211,0.388-0.669,0.6-1.128,0.6h-3.561c-0.458,0-0.917-0.212-1.128-0.6
			l-3.42-6.735c-0.071-0.105-0.141-0.211-0.176-0.211c-0.071,0-0.106,0.105-0.106,0.353v16.396c0,0.354-0.247,0.705-0.564,0.705
			h-3.561c-0.317,0-0.6-0.176-0.6-0.529v-24.258c0-0.776,0.634-1.41,1.411-1.41h2.891c0.564,0,1.058,0.353,1.304,0.846l5.325,10.79
			c0.176,0.316,0.247,0.493,0.388,0.493c0.142,0,0.211-0.177,0.388-0.493l5.325-10.79c0.247-0.493,0.741-0.846,1.304-0.846h2.891
			c0.776,0,1.411,0.634,1.411,1.41v24.258C189.088,140.74,188.806,140.916,188.489,140.916z"/>
	</g>
</g>
</svg>
